<?xml version="1.0" encoding="UTF-8"?>
<svg id="Layer_2" xmlns="http://www.w3.org/2000/svg" version="1.1" viewBox="0 0 939.8 1048.1">
  <!-- Generator: Adobe Illustrator 30.3.0, SVG Export Plug-In . SVG Version: 2.1.3 Build 182)  -->
  <defs>
    <style>
      .st0 {
        fill: #a9c6d5;
      }

      .st1 {
        stroke-width: 18px;
      }

      .st1, .st2, .st3, .st4, .st5, .st6 {
        fill: none;
      }

      .st1, .st3, .st4, .st5 {
        stroke: #000;
      }

      .st1, .st5 {
        stroke-miterlimit: 10;
      }

      .st7 {
        fill: #7ea4b9;
      }

      .st8 {
        fill: #c7e3f3;
      }

      .st2 {
        stroke-width: 65px;
      }

      .st2, .st3, .st4, .st6 {
        stroke-linejoin: round;
      }

      .st2, .st6 {
        stroke: #1f2128;
      }

      .st3 {
        stroke-width: 45px;
      }

      .st4 {
        stroke-width: 45px;
      }

      .st5 {
        stroke-width: 20px;
      }

      .st9 {
        fill: #4a8fb3;
      }

      .st10 {
        fill: #75b6dc;
      }

      .st6 {
        stroke-width: 65px;
      }

      .st11 {
        fill: #3b6280;
      }
    </style>
  </defs>
  <path class="st2" d="M546,277.9h-2.6c-27.1,0-54.1,2.9-80.2,8.7-2.4.5-4.7,1-7,1.6-.6,0-1.1.3-1.7.4-2.4.6-4.6,1.1-6.9,1.8-.3,0-.6.2-.8.2-2.1.6-4.3,1.1-6.3,1.8-.5.2-1,.3-1.5.5-2.3.7-4.5,1.3-6.8,2.1h-.4l-16.7-75.5c.5,0,.9-.3,1.4-.4.9-.3,1.9-.6,2.7-.9,2.2-.6,4.3-1.2,6.4-1.8,1-.3,2.1-.6,3.1-.9,2.1-.6,4.3-1.2,6.4-1.8.9-.3,1.8-.5,2.7-.8,3-.9,6.1-1.7,9-2.5,3.5-.9,7-1.9,10.4-2.8,1.1-.3,2.3-.6,3.4-.9,2.4-.7,4.7-1.2,7.1-1.9,1.3-.4,2.7-.8,4.1-1,2.2-.6,4.3-1.1,6.4-1.7,1.4-.4,2.9-.8,4.3-1.1,2.1-.6,4.2-1,6.2-1.5,1.5-.4,2.9-.8,4.4-1.1,2.1-.5,4.2-1,6.1-1.5,1.5-.4,3-.8,4.5-1,2.1-.5,4.2-.9,6.2-1.5,1.5-.4,2.9-.7,4.4-1,2.1-.5,4.3-.9,6.3-1.4,1.4-.4,2.8-.7,4.3-.9.5,0,.9-.2,1.5-.4l19.3,87.3h.3Z"/>
  <path class="st2" d="M564.4,68.7c-4,.8-7.8,1.5-11.7,2.3l-2.7.6c-1.8.4-3.7.8-5.5,1.1l-2.4.5c-10.6,2.2-21.1,4.4-31.3,6.7-29.6,6.5-59.6,13.9-89.1,21.8-13.3,3.6-26.7,7.4-39.8,11.2-4.2,1.2-8.3,2.5-12.5,3.7-1.4.4-2.7.9-4.2,1.2-2.8.9-5.6,1.7-8.4,2.6-1.7.5-3.3,1-4.9,1.5-2.6.8-5,1.6-7.6,2.4-1.8.6-3.5,1.1-5.3,1.7-2.5.8-4.8,1.5-7.3,2.3-1.8.6-3.6,1.1-5.4,1.7-2.4.8-4.7,1.5-7.1,2.3-1.8.6-3.6,1.2-5.5,1.8-2.4.8-4.7,1.6-7.1,2.4-1.8.6-3.6,1.2-5.4,1.8-2.4.8-4.7,1.6-7,2.4-1.8.6-3.6,1.2-5.4,1.8s-1.8.7-2.7.9l-4.5-20.5c13.6-4.7,27.5-9.4,41.3-13.8,18.4-6,37.1-11.6,55.4-16.9,42-12.2,84.9-23.2,127.7-32.6,11.1-2.5,22.3-4.8,33.5-7.1,6.7-1.3,13.4-2.7,20.2-4l4.5,20.3h.2Z"/>
  <path class="st2" d="M271.1,152.7s0,.2-.2.3c-1.2,1.8-2.6,3.7-3.8,5.5-.3.4-.6.8-.9,1.2-1.3,1.9-2.6,3.8-3.9,5.7-8.9,13.1-17.7,26.8-26,40.6-1.9,3.1-3.8,6.2-5.6,9.4-11.2,18.8-21.7,38-31.6,57.5-1.1,2.2-2.3,4.4-3.3,6.6s-1,2.1-1.5,3h0l-10.2,20.7.4-.2c-5.2,11.2-10.2,22.4-14.9,33.7-25.7,60.8-45.5,124.4-58.7,189.2-13.6,66.5-20.5,134.8-20.5,203.3s0,12,.2,18.2c1,55.7,6.5,111.3,16.5,165.5l-44.1-38.7c-7.7-37.3-13.2-75.8-16.4-114.2-2.5-28.3-3.7-57-3.7-85.6,0-67.3,6.8-134.5,20.1-199.8,9.4-45.7,22-91,37.8-135.1.5-1.3.9-2.6,1.4-3.9l3.2-8.7-36.3-10,21.3-116.6c31-14.4,62.9-28.2,94.7-41,26.7-10.8,53.8-21.1,80.8-30.6l5.4,24.2h-.3v-.2Z"/>
  <path class="st2" d="M556.5,166.7c-8.5,1.8-17,3.6-25.2,5.4-29.8,6.5-59.7,14-89.1,21.9-13,3.6-26.5,7.4-39.7,11.2-50.6,14.9-101.1,32.1-149.9,51.1-11,4.3-21.8,8.6-32.5,13,9.7-18.5,20-36.9,30.9-54.7,8.2-13.5,16.8-26.9,25.5-39.9,3-4.4,6.1-8.9,9.1-13.1,33.3-11.6,67.3-22.6,101.2-32.5,13-3.8,26.3-7.6,39.4-11.1,29.2-7.8,58.9-15.1,88.3-21.6,8.2-1.8,16.7-3.7,25.2-5.4l16.7,75.7h0Z"/>
  <path class="st2" d="M91.2,253.1l-10.2,56.2,38,10.5-7.1,19.4c-.5,1.2-.9,2.5-1.3,3.8-15.6,43.5-28.2,88.5-37.4,133.6-13.2,64.7-19.9,131.1-19.9,197.8s1.2,56.7,3.6,84.6c3.1,36.9,8.4,73.7,15.6,109.7l3.2,16.6-12.7-11.1c-7.7-37.3-13.2-75.8-16.4-114.2-2.5-28.3-3.7-57-3.7-85.6,0-67.3,6.8-134.5,20.1-199.8,9.4-45.7,22-91,37.8-135.1.5-1.3.9-2.6,1.4-3.9l3.2-8.7-36.3-10,10.6-58.1,8.3-45.9,2.3-12.6c31-14.4,62.9-28.2,94.7-41,26.7-10.8,53.8-21.1,80.8-30.6l2.3,10.3c-37.1,13.1-73.6,27.4-109.9,42.7-19.7,8.3-39.2,16.9-58.7,25.9l-8.3,45.7h0v-.2h0Z"/>
  <path class="st2" d="M396.3,108.7c-4.7,1.3-9.5,2.7-14.3,4.1-4.2,1.2-8.3,2.5-12.5,3.7-1.4.4-2.7.9-4.2,1.2-2.8.9-5.6,1.7-8.4,2.6-1.7.5-3.3,1-4.9,1.5-2.6.8-5,1.6-7.6,2.4h-.2l-2.3-10.2c17.3-5.4,34.6-10.6,52.1-15.5l2.3,10.2h0Z"/>
  <path class="st2" d="M488.4,84.9c-3.3.8-6.7,1.6-10,2.4l-2.3-10.2c3.3-.8,6.7-1.6,10-2.4h0l2.3,10.1h0Z"/>
  <path class="st2" d="M560,48.3c-6.8,1.3-13.5,2.6-20.2,4-5.2,1-10.5,2.2-15.7,3.3-6,1.2-11.8,2.6-17.7,3.9-2.7.6-5.4,1.2-8.1,1.8-4.7,1-9.5,2.2-14.3,3.3-3.3.8-6.7,1.6-10,2.4-27.5,6.6-55,13.7-82.2,21.4-4.4,1.2-8.8,2.6-13.1,3.8-12.9,3.7-25.9,7.7-38.9,11.7-5.5,1.7-11,3.5-16.5,5.2-13.8,4.4-27.7,9.1-41.3,13.8l2.3,10.2c19.2-6.6,38.5-13,57.9-19,17.3-5.4,34.6-10.6,52.1-15.5l2.3,10.2c8.5-2.5,17-4.7,25.5-7.1,18.7-5,37.6-9.8,56.5-14.4l-2.3-10.2c3.3-.8,6.7-1.6,10-2.4h0l2.3,10.1c4.7-1.1,9.5-2.2,14.3-3.3l-2.3-10.2c8.6-1.9,17.2-3.8,25.8-5.7,4.6-.9,9.2-1.9,13.8-2.8,7.4-1.5,14.7-3,22.1-4.3l-2.3-10.2h0Z"/>
  <path class="st2" d="M528.5,75.9c-6,1.2-11.9,2.6-17.7,3.8-2.7.6-5.5,1.2-8.1,1.8l-2.3-10.2c8.6-1.9,17.2-3.8,25.8-5.7l2.3,10.1s0,.2,0,.2Z"/>
  <path class="st2" d="M546,277.9h-2.6c-8.9,0-17.7.3-26.5.9l-18.1-81.7c.2,0,.5,0,.7-.2,1.5-.4,3-.8,4.5-1,2.1-.5,4.2-.9,6.2-1.5,1.5-.4,2.9-.7,4.4-1,2.1-.5,4.3-.9,6.3-1.4,1.4-.4,2.8-.7,4.3-.9.5,0,.9-.2,1.5-.4l19.3,87.3h0Z"/>
  <path class="st2" d="M391.7,208.6c-4.4,1.3-8.8,2.6-13.2,4.1l-14.6-65.8c4.4-1.3,8.8-2.6,13.2-4l14.6,65.7h0Z"/>
  <path class="st2" d="M470.9,186.5c-9.6,2.5-19.2,5-28.6,7.6-10.3,2.8-20.8,5.8-31.3,8.8l-14.6-65.7c19.9-5.8,39.9-11.2,60-16.3l14.6,65.5h-.1Z"/>
  <path class="st2" d="M509.8,177c-9.4,2.2-18.8,4.4-28.2,6.8l-14.6-65.5c9.4-2.4,18.7-4.6,28.2-6.8l14.6,65.5Z"/>
  <path class="st2" d="M541.9,101.2l-2.3-10.2c-8.5,1.8-16.9,3.6-25.2,5.4-7.2,1.6-14.4,3.2-21.6,4.9-9.4,2.2-18.8,4.4-28.2,6.8-3.6.9-7.1,1.8-10.7,2.6-9.4,2.4-18.6,4.8-27.9,7.3-10.7,2.9-21.5,5.9-32.1,9-2.5.7-4.9,1.4-7.3,2.1-4,1.1-7.9,2.4-11.9,3.5-4.4,1.3-8.9,2.6-13.2,4-25.5,7.8-51,16.2-76.1,25-3,4.3-6.1,8.7-9.1,13.1-.3.5-.7.9-.9,1.4,29.2-10.5,58.6-20.2,88.3-29.4,4.4-1.3,8.8-2.6,13.2-4,6.4-1.9,12.9-3.8,19.3-5.7,19.9-5.8,39.9-11.2,60-16.3l14.6,65.5c3.6-.9,7.1-1.8,10.7-2.7l-14.6-65.5c9.4-2.4,18.7-4.6,28.2-6.8l14.6,65.5c7.2-1.7,14.4-3.3,21.6-4.9,8.2-1.8,16.6-3.7,25.2-5.4l-14.5-65.5v.3h-.1Z"/>
  <path class="st2" d="M516.9,278.7c-11.2.8-22.2,2.1-33.1,3.8l-17.1-77.4c.4,0,.8-.2,1-.3,1.3-.4,2.7-.8,4.1-1,2.2-.6,4.3-1.1,6.4-1.7,1.4-.4,2.9-.8,4.3-1.1,2.1-.6,4.2-1,6.2-1.5,1.5-.4,2.9-.8,4.4-1.1,1.9-.5,3.7-.9,5.6-1.3l18.1,81.7h.1Z"/>
  <path class="st2" d="M621.1,648.6c0,34.4-23.2,65-55.9,74.6l-10.3-46.5,12-28.3c17.8-4.3,35.5-9.2,52.8-14.4.9,4.7,1.3,9.6,1.3,14.6h.1Z"/>
  <path class="st2" d="M555.1,725.5c-3.9.6-7.8.9-11.7.9-35.9,0-66.7-24.4-75.3-58.7,18-2.6,35.9-5.7,54-9.3l22.9,20.5,10.3,46.5h-.2Z"/>
  <path class="st2" d="M531.9,621l-12.2,27.2c-17.9,3.6-35.7,6.6-53.6,9.2-.4-2.9-.5-5.9-.5-8.8,0-34.5,23.2-65,55.9-74.6l10.4,47h0Z"/>
  <path class="st2" d="M617.1,624c-17.3,5.2-34.8,10-52.5,14.3l-22.6-19.6-10.4-47c3.9-.6,7.8-.9,11.7-.9,33.6,0,63.2,21.6,73.7,53.1h0Z"/>
  <path class="st2" d="M707.4,523.3h-.2c-18.3-23.8-41.9-43.8-68.5-57.7-22.1-11.5-46.5-19-71.4-21.9,26.3-7.7,52.1-16.3,77.3-25.9l20.7,11c16.3,30.1,30.3,61.7,42,94.4h.1Z"/>
  <path class="st2" d="M859.5,489.6l-141.9,31.4c-11.9-33.7-26.4-66.3-43.1-97.2l1.7-18.5c23.7-9.9,46.8-20.8,69.2-32.3l22.5,2.2c8.9,7.3,17.5,15.1,25.6,23.3,26.8,26.8,49.1,57.5,66,91.1h0Z"/>
  <path class="st2" d="M739.3,354l-2.3,11.5c-21.3,10.9-43.3,21.1-65.8,30.5l-20.4-12.5c-19.9-31.2-41.9-60.1-66-86.3,2.1.3,4.3.5,6.3.8,10.1,1.3,20.2,3.2,30.2,5.4,20.3,4.5,40.4,11.1,59.6,19.2,20.5,8.7,39.9,19.2,58.2,31.4h.2Z"/>
  <path class="st2" d="M640.2,386.1l-1.2,22.9c-34.7,13-70.5,24.4-107,33.7-11.2.6-22.3,2.1-33.2,4.5-10.6,2.4-21.1,5.6-31.2,9.5l-32.1-145.1c.3,0,.5-.2.8-.2,2.3-.8,4.5-1.4,6.8-2.1.3,0,.6-.2.9-.3,2.2-.7,4.3-1.2,6.4-1.8.4,0,.9-.2,1.2-.4,2.3-.6,4.5-1.2,6.9-1.8.5,0,.9-.2,1.4-.4,2.4-.6,4.7-1.1,7.1-1.6,24.9-5.5,50.7-8.3,76.6-8.3s2.4,0,3.6,0c3.2,0,6.4,0,9.5.2,4.3.2,8.7.4,13,.7,25.9,27.1,49.6,57.4,70.9,90.4h-.4Z"/>
  <path class="st2" d="M293.5,474.4c-15.1.2-30.3,0-45.3-.6l-6.9-9.5c11.2-18.3,24.1-35.5,38.5-51.6l13.7,61.8h0Z"/>
  <path class="st2" d="M336.2,667.6c-52.1.6-96-3.2-128.7-7.7l-17.9-20c1-44.6,10.4-88,27.7-128.9,2.2-5.1,4.4-10.2,6.9-15.3l19.6-11.5c13,.6,26.1.9,39.2.9s8.5,0,12.8,0l40.5,182.7h0v-.2Z"/>
  <path class="st2" d="M397.8,845.3l-3.7,15c-42.9,1.1-84.9-.6-125.3-5.2l-18.8-8.5c-12.8-18.9-23.8-39.1-32.7-60.3-8.3-19.8-14.9-40.4-19.5-61.2-2.6-11.8-4.5-23.8-6-35.9l16.7-18.7c30.6,4.1,70.4,7.6,117.2,7.6s8.4,0,12.7,0l2.6,11.6c.2,1.2.5,2.5.8,3.7.4,1.8.8,3.5,1.1,4.9,3.1,12.6,7.4,24.8,12.8,36.5,11,38.4,25,75.3,42,110.6h.1Z"/>
  <path class="st2" d="M501.8,999.9c-33.1-3.9-65.3-12.4-96.1-25.3-42.1-17.8-80-43.3-112.5-75.8-4.6-4.6-9.2-9.5-13.5-14.3l3.2-17.4c27.9,2.6,56.5,4,85.6,4s20.3-.2,30.6-.5l20.2,15.9c28.2,49.3,58.2,87.2,82.3,113.5h.2Z"/>
  <path class="st2" d="M504,851.2c-24.8,3.4-49.5,6-74.1,7.5l-21.4-15.2c-11.1-22.6-20.8-46-29.3-70.1,10.4,13.7,22.5,26.1,36,36.9,26.4,20.9,56.5,34.7,88.9,40.9h-.1Z"/>
  <path class="st2" d="M614.8,995.2c-23.3,4.8-47.3,7.2-71.5,7.2s-16.4-.3-24.3-.9h-1.7c-23.8-25-55.4-63-85.3-113.9l3.6-18.7c37.1-2.6,74.4-7.2,111.6-13.9,7.7-.2,15.3-.7,22.9-1.7l15.8,11.2,29,130.9h0v-.2h-.1Z"/>
  <path class="st2" d="M745.1,818.1c-5.6,58.9-18.2,106.7-29.3,139.4-.5.3-.9.6-1.4.9-10.7,5.9-21.8,11.3-33.3,16.2-18.2,7.7-37.1,13.8-56.1,18.3l-28.8-130.4,9.6-17.3c7.4-2.4,14.7-5.1,21.7-8.2,36.4-9.6,72-21.1,106.5-34.4l11.2,15.5h-.2,0Z"/>
  <path class="st2" d="M882.1,751.2c-3.6,11.9-7.8,23.6-12.7,35.2-17.8,42.2-43.3,80-75.8,112.5s-41,36.5-64.1,50.9c10.7-34,22-81.1,26.8-137.7l11.6-23c36.6-15.6,71.4-33.2,104-52.3l10.4,14.5h-.2Z"/>
  <path class="st2" d="M897,659.3c-.5,15.1-1.9,30.3-4.2,45l-13.5,15.8c-34.6,21.2-71.9,40.5-111.3,57.5l-9.6-12.1c.3-24.8-.8-49.8-3.1-74.8l141.8-31.4h-.1Z"/>
  <path class="st2" d="M747.9,768.3l-13,22.8c-23.1,9-46.6,17.2-70.6,24.6,9.6-7,18.7-14.8,27-23.4,26.8-27.7,45.3-61.9,53.4-99.3h0c2.4,25.1,3.4,50.4,2.9,75.3h.3Z"/>
  <path class="st2" d="M534.6,669.8c-21.3,4.4-42,8-62,11-1.9-4.2-3.4-8.6-4.6-13.1,18-2.6,35.9-5.7,54-9.3l12.7,11.4h-.1Z"/>
  <path class="st2" d="M524.8,589c-37.1,13-52.8,38.7-59,53.7,2.5-32,24.9-59.7,55.7-68.7l3.3,15Z"/>
  <path class="st2" d="M690.9,481.4l-36.4-43.2-10.1-5.6c-15.2,5.7-31.3,11.2-48,16.6-9.5-2.6-19.2-4.3-28.9-5.5,26.3-7.7,52.1-16.3,77.3-25.9l15.9,8.5h0l4.7,2.6c9.3,17,17.8,34.6,25.5,52.6h0Z"/>
  <path class="st2" d="M582.9,310.5c-7.8-.2-15.3-.2-22.7,0-44.1,1.1-79.2,8.5-100.9,14.6l2.7,106.9-22.3-100.8-4.3-19.5c.3,0,.5-.2.8-.2,2.3-.8,4.5-1.4,6.8-2.1.3,0,.6-.2.9-.3,2.2-.7,4.3-1.2,6.4-1.8.4,0,.9-.2,1.2-.4,2.3-.6,4.5-1.2,6.9-1.8.5,0,.9-.2,1.4-.4,2.4-.6,4.7-1.1,7.1-1.6,24.9-5.5,50.7-8.3,76.6-8.3s2.4,0,3.6,0c3.2,0,6.4,0,9.5.2,4.3.2,8.7.4,13,.7,3.2,3.3,6.3,6.7,9.5,10.2,1.3,1.5,2.6,3,4.1,4.5h-.3Z"/>
  <path class="st2" d="M284.8,435.2c-15.2,14.7-25.1,30.7-29.8,38.9-2.3,0-4.5,0-6.8-.2l-6.9-9.5c11.2-18.3,24.1-35.5,38.5-51.6l5,22.5h0Z"/>
  <path class="st2" d="M341.5,691.6c-5.7,0-11.2.2-16.5.2-32.5,0-61-1.6-84.6-3.8-9.8-.9-19.2-2-28-3h0l-6.2,7.6s4.9,61.4,18.3,109.5c-2.5-5.1-4.8-10.3-7-15.5-8.3-19.8-14.9-40.4-19.5-61.2-2.6-11.8-4.5-23.8-6-35.9l5.8-6.4,11-12.3c30.6,4.1,70.4,7.6,117.2,7.6s8.4,0,12.7,0l2.6,11.6c0,.7.3,1.3.4,2h0v-.3h-.2Z"/>
  <path class="st2" d="M449.4,888.2l18.5,53.9c-11.8-16.2-23.9-34.3-35.8-54.5l.9-4.9,2.6-13.8c37.1-2.6,74.4-7.2,111.6-13.9,7.7-.2,15.3-.7,22.9-1.7l12.4,8.7c-46.9,10-90.9,16.1-131.3,19.4l-1.8,6.9h0Z"/>
  <path class="st2" d="M610.7,865.9s4.8,63.2,8.8,102.4l-23.4-105.7,2.4-4.3,7.3-13c7.4-2.4,14.7-5.1,21.7-8.2,36.4-9.6,72-21.1,106.5-34.4l8.2,11.4c-37.2,14.5-79,28.3-125.3,39.8h0l-6.3,12h0Z"/>
  <path class="st2" d="M774.3,774.8c-2.1.9-4.2,1.9-6.3,2.7l-9.6-12.1c.3-24.8-.8-49.8-3.1-74.8l16.9-3.8c.9,12.2,3.6,52.7,2.2,87.8h0v.2Z"/>
  <path class="st2" d="M692.3,413.3l-1.2,12.6s8.2,25,15.6,66.1c-9.5-23.4-20.1-46.1-32-68.1l.3-3.2,1.4-15.3c23.7-9.9,46.8-20.8,69.2-32.3l9.7.9,12.7,1.2c.4.3.7.6,1,.9-3.5,1.9-7.1,3.8-10.8,5.8-19.4,10.2-41.4,20.9-65.9,31.6h0v-.2Z"/>
  <path class="st2" d="M879.7,747.9c-.9.6-1.9,1.1-2.8,1.7-25.9,15.1-59.2,32.6-99.2,50l-7.8,16.2s-8.9,65.9-36.1,119.6c9.3-32.4,18.3-74.4,22.4-123.5l2.1-4.2,9.5-18.7c36.6-15.6,71.4-33.2,104-52.3l8,11.2h-.1Z"/>
  <path class="st2" d="M298.8,498.4h-16.6c-13.6,0-26.6-.3-38.8-.8l-7.5,5.4s-34,61.4-46.2,136.7c1-44.6,10.4-88,27.7-128.9,2-4.7,4.2-9.5,6.3-14.2l.6-1.1,19.6-11.5c13,.6,26.1.9,39.2.9s8.5,0,12.8,0l3,13.6h-.1Z"/>
  <path class="st2" d="M687.7,325.5c-32.1-8.6-62.6-13-90.6-14.5-4-4.7-8.1-9.3-12.2-13.8,2.1.3,4.3.5,6.3.8,10.1,1.3,20.2,3.2,30.2,5.4,20.3,4.5,40.4,11.1,59.6,19.2,2.2.9,4.4,1.9,6.6,2.8h.1Z"/>
  <path class="st2" d="M397.8,845.3l-3.7,15c-25.6.7-50.9.4-75.6-1,15.6-4.3,57.8-19.7,58.4-62,6.3,16.4,13.3,32.3,20.9,48h0Z"/>
  <path class="st2" d="M501.8,999.9c-33.1-3.9-65.3-12.4-96.1-25.3-7.6-3.2-14.9-6.6-22.1-10.3,14.9-3.2,44.1-12.9,59-40.5,20.9,31.5,41.7,56.8,59.3,76.1h0Z"/>
  <path class="st2" d="M614.8,995.2c-23.3,4.8-47.3,7.2-71.5,7.2s-16.4-.3-24.3-.9h-1.7c-2.4-2.5-4.8-5.1-7.4-7.8,15.3-8.4,62.9-38.8,82-101.4l22.8,103h0Z"/>
  <path class="st2" d="M739.3,354l-2.3,11.5c-21.3,10.9-43.3,21.1-65.8,30.5l-13-8c11.8-6.4,49.5-29.3,41.2-57,13.8,6.8,27.1,14.5,39.9,23h0Z"/>
  <path class="st2" d="M640.2,386.1l-1.2,22.9c-24.9,9.4-50.4,17.9-76.3,25.3,49.5-46.1,10.2-106.9-2.5-123.8,7.3-.2,14.8-.2,22.7,0,20.7,23.3,39.9,48.5,57.3,75.6h0Z"/>
  <path class="st2" d="M738.6,516.4c14.2-16.9,44.8-64.2,19.6-134.6,3.7-1.9,7.3-3.9,10.8-5.8,8.5,7.1,16.7,14.6,24.6,22.4,26.8,26.8,49.1,57.5,66,91.1l-120.9,26.8h0Z"/>
  <path class="st2" d="M368.5,956.3c-27.4-15.6-52.7-34.8-75.3-57.5-4.6-4.6-9.2-9.5-13.5-14.3l.8-3.9,1.1-6.1,1.4-7.4c27.9,2.6,56.5,4,85.6,4s20.3-.2,30.6-.5l16.5,13c-16.6.8-32.5,1.1-47.6,1.1-27.5,0-52.1-1.1-73.4-2.8v2.8s36.8,48.8,73.6,71.6h.2Z"/>
  <path class="st2" d="M617.1,624c-17.3,5.2-34.8,10-52.5,14.3l-7.2-6.2c8-4.6,26.3-17.6,30.1-40.7,7.1,2.9,12.7,6.2,16.5,8.7,5.7,7,10.1,15.1,13,24h.1Z"/>
  <path class="st2" d="M604,600.1c-3.9-2.6-9.5-5.8-16.5-8.7-13.4-5.6-31.9-9.8-52.7-5.2l-3.2-14.4c3.9-.6,7.8-.9,11.7-.9,17.3,0,33.5,5.7,46.6,15.6,5.2,3.9,9.9,8.5,14.1,13.6h0Z"/>
  <path class="st2" d="M621.1,648c-4.1,1.2-8.2,2.5-12.3,3.6-15.6,4.4-31.8,8.7-48.5,12.6l6.7-15.7c17.8-4.3,35.5-9.2,52.8-14.4.3,1.4.5,2.9.7,4.3.4,3.1.7,6.3.7,9.5h-.1Z"/>
  <path class="st2" d="M555.1,725.5c-3.9.6-7.8.9-11.7.9-26,0-49.3-12.8-63.4-32.8,14.7,9.1,44.6,24.6,72.6,20.1l2.6,11.7h0Z"/>
  <path class="st2" d="M621.1,648.6c0,34.4-23.2,65-55.9,74.6l-2.6-12c33.8-11.3,43.5-44.6,46.2-59.7,4.2-1.1,8.2-2.4,12.3-3.6v.7h0Z"/>
  <path class="st2" d="M524,638.6l-4.3,9.6c-17.9,3.6-35.7,6.6-53.6,9.2-.4-2.9-.5-5.9-.5-8.8v-.2c10.2-1.1,32.7-4,58.3-9.7h0Z"/>
  <polygon class="st2" points="572 657.4 558.2 691.4 554.9 676.7 566.9 648.5 572 657.4"/>
  <polygon class="st2" points="543.4 580.7 542 618.8 531.6 571.8 543.4 580.7"/>
  <circle class="st6" cx="148.9" cy="245.3" r="33.9"/>
  <path class="st2" d="M175.5,237.7v2.7h0c-1.4,13.5-12.8,24-26.7,24s-25.2-10.5-26.7-24h0c0-.9-.2-1.9-.2-2.7v-1.9c.9-13.9,12.6-24.9,26.7-24.9s25.7,11,26.7,24.9v1.9h.3-.1Z"/>
  <path class="st2" d="M175.5,237.7v2.7h0c-1.4,13.5-12.8,24-26.7,24s-25.2-10.5-26.7-24h0c0-.9-.2-1.9-.2-2.7v-1.9c5.1-8.8,15.1-14.7,26.7-14.7s21.6,6,26.7,14.7v1.9h.3-.1Z"/>
  <path class="st2" d="M629.6,648.6c0,41.2-28.9,75.7-67.6,84.2-6,1.3-12.3,2.1-18.6,2.1-42.4,0-77.7-30.7-84.9-71.1-.9-4.9-1.3-10-1.3-15.1,0-41.2,28.9-75.7,67.6-84.2,6-1.3,12.3-2.1,18.6-2.1,40,0,73.6,27.2,83.4,64.1,1.9,7.1,2.8,14.5,2.8,22.1h0Z"/>
  <path class="st2" d="M574.6,75.4c-9.5,1.8-19,3.6-28.5,5.6-.8.2-1.6.3-2.4.5-10.4,2.1-20.8,4.3-31.2,6.6-29.7,6.6-59.3,13.8-88.7,21.7-13.2,3.6-26.5,7.3-39.6,11.2-35.1,10.2-69.9,21.5-104.3,33.6h0l-8.2-37.2c16.2-5.7,32.3-11.1,48.7-16.4,18.4-6,37-11.6,55.7-17,42.2-12.3,85-23.2,128.3-32.8,11.2-2.5,22.3-4.8,33.6-7.1,9.5-1.9,18.9-3.8,28.5-5.6l8.2,37h0Z"/>
  <path class="st2" d="M271.9,117.3c-30.4,10.6-60.5,21.9-90.2,33.9-33.5,13.5-66.6,27.9-99.1,43.1l-8.3,45.9-15,82.7,34.9,9.6c-.5,1.3-.9,2.6-1.4,4-16,44.4-28.7,90-38.2,136.2-13.5,65.9-20.3,133.7-20.3,201.6s1.2,57.7,3.7,86.2c3.3,38.9,8.9,77.4,16.6,115.3.2.9.4,1.8.6,2.7h0l61.2,53.6c1.2,1.1,3.1,0,2.8-1.6h0c-12.3-60-19-121.7-20.1-183.5,0-6.1-.2-12-.2-18.1,0-67.9,6.8-135.7,20.3-201.6,13.1-64.2,32.7-127.2,58.2-187.6,7.7-18.2,15.9-36,24.7-53.7,12.8-25.9,26.8-51.1,41.7-75.8,8.3-13.6,16.8-27,25.8-40.2,3.5-5.2,7.1-10.4,10.7-15.5h0l-8.2-37.2h0v-.2h0l-.2.2Z"/>
  <path class="st2" d="M566.6,173.3c-1.3.3-2.6.6-3.9.8-9.9,2-19.9,4.2-29.7,6.3-29.7,6.5-59.3,13.8-88.6,21.8-13.2,3.6-26.5,7.4-39.6,11.2-50.5,14.9-100.3,31.9-149.3,50.9-17.9,6.9-35.6,14.2-53.3,21.6l-.4.2c12.8-25.9,26.8-51.1,41.8-75.8,8.3-13.6,16.8-27,25.8-40.2,3.5-5.2,10.7-15.5,10.7-15.5,34.4-12.1,69.2-23.4,104.3-33.6,13.1-3.9,26.4-7.6,39.6-11.2,29.4-7.9,59-15.2,88.7-21.7,10.4-2.3,20.8-4.5,31.2-6.6.8-.2,1.6-.3,2.4-.5l20.4,92.4h0v-.2h-.1Z"/>
  <path class="st2" d="M866,496.9l-159.3,35.3c-1.8.4-3.7-.3-4.8-1.8-36-48.3-93.7-79.5-158.5-79.5s-29,1.6-42.8,4.6c-11.7,2.6-23.1,6.2-33.9,10.8-2.7,1.1-5.9-.5-6.4-3.3l-34.8-156.9c13-4.5,26.2-8.2,39.6-11.2,25.5-5.7,51.7-8.5,78.4-8.5s8.9,0,13.2.3c12,.4,24,1.4,35.8,3,10.4,1.4,20.7,3.2,30.9,5.6,20.8,4.7,41.2,11.2,61.1,19.7,43.1,18.2,81.9,44.3,115.1,77.6,28.7,28.7,52.2,61.5,69.8,97.8,1.3,2.7-.3,6.1-3.2,6.7h0l-.2-.2Z"/>
  <path class="st2" d="M626.7,626.5c-26.2,8.1-54,15.6-83.4,22.1"/>
  <path class="st2" d="M899.9,650c3-.7,5.8,1.6,5.8,4.7-.3,19.8-2.2,39.3-5.7,58.5-4.7,26.2-12.3,51.7-22.8,76.5-18.2,43.1-44.3,81.9-77.6,115.1-24.3,24.2-51.4,44.7-81,61.1-11.1,6.1-22.4,11.6-34.1,16.5-20.3,8.6-41.3,15.3-62.7,20-25.5,5.7-51.7,8.5-78.4,8.5s-16.6-.3-24.9-.9c-40.2-2.6-79.1-12-116.2-27.6-43.1-18.2-81.9-44.3-115.1-77.6-14.7-14.7-28-30.4-39.8-47.1-15-21.2-27.7-44-37.9-68.1-8.6-20.3-15.3-41.3-19.9-62.7-4.7-21.6-7.5-43.5-8.2-65.9h0c-.2-4.2-.2-8.3-.2-12.5,0-48.9,9.5-96.3,28.5-141,4.3-10.2,9.1-20.1,14.2-29.8,14.8-27.7,33.1-53.2,54.7-76.4,2.6-2.7,7.3-1.5,8,2.3l16.8,75.8,42.7,193.1h0l3.3,15.1h0c.3,1.2.5,2.5.8,3.7.4,1.6.8,3.2,1.1,4.7,21.3,86.3,99.2,150.2,192,150.2s27.2-1.4,40.2-4.1c.7-.2,1.3-.3,2.1-.5h1.1c75.4-16.8,134.7-76.9,150.4-152.8.4-1.8,1.8-3.3,3.6-3.7l8.6-1.9,150.6-33.4h0v-.3h0v.5Z"/>
  <path class="st2" d="M556.6,286.6c-4.4-.2-8.8-.3-13.2-.3-26.7,0-52.8,2.8-78.4,8.5-13.3,2.9-26.6,6.7-39.6,11.2l-20.5-92.5c13.1-3.9,26.4-7.7,39.6-11.2,29.4-8,58.9-15.3,88.6-21.8l23.5,106.2h0Z"/>
  <path class="st2" d="M350.2,691.4c.4,1.6.8,3.2,1,4.7h0c15,65.7,37.4,121.8,62.2,168.7,35.1,66.4,74.8,114.4,105,145.2"/>
  <path class="st2" d="M718.5,965.9c14.4-40.7,30.2-101.1,33.8-176,1.6-32.8.9-68.4-3.1-106.5"/>
  <path class="st2" d="M568.2,287.1c26.2,26.8,59.6,66.4,90.8,119.6,20.6,35.2,40.3,76.2,56.3,123.5"/>
  <path class="st2" d="M247.5,857.7c41.6,5.9,98.2,10.3,166.1,7.2,50.9-2.4,108.1-9,170.1-22.5.7-.2,1.3-.3,2.1-.5h1.1"/>
  <path class="st2" d="M223.7,477.8c24,1.5,50.6,2.3,79.6,1.7"/>
  <path class="st2" d="M899.9,713.2c-35.3,22.9-84.7,50.8-147.6,76.6-47.6,19.6-103,37.9-165.7,51.8h-1.1"/>
  <path class="st2" d="M500.6,455.5h.3c59.5-13.1,112.2-30.3,158.2-48.7,39-15.6,73.1-32.1,101.9-47.9"/>
  <polyline class="st2" points="586.2 841.8 601.4 910.8 621.7 1002.4"/>
  <polyline class="st2" points="524.7 564.4 543.4 648.6 549.2 674.9 562 732.9"/>
  <path class="st2" d="M181.3,661.1c38.3,6.6,94.7,13,164.8,11.5"/>
  <path class="st2" d="M458.5,663.8c27.1-3.7,55.5-8.6,84.9-15.1"/>
  <path class="st2" d="M741,345l-5.2,27.1,46.8,4.5s-22.3-19.9-41.6-31.7h0Z"/>
  <path class="st2" d="M886.7,757.7l-18.1-25.2,27.2-31.8s-.8,28.1-9.2,57h0Z"/>
  <polygon class="st2" points="753.2 759 771.4 781.7 749.7 824.6 730.9 798.3 753.2 759"/>
  <polygon class="st2" points="673.7 433.3 676.7 399.4 640.6 377.3 638.7 414.7 673.7 433.3"/>
  <path class="st2" d="M235.9,456.8l16.2,22.4-40.6,23.9s11.8-27.5,24.4-46.3h0Z"/>
  <path class="st2" d="M278.2,892.5l5.8-30.5-38.1-17.3s12.6,25.1,32.3,47.8h0Z"/>
  <polygon class="st2" points="399.8 837.2 393 865.6 430.6 895.3 436.6 863.5 399.8 837.2"/>
  <polygon class="st2" points="586.8 844.8 563.7 848.7 592.5 869 607.8 840.2 586.8 844.8"/>
  <path class="st2" d="M180.8,629.8l32,36.1-28.5,31.9s-5.9-49.8-3.6-67.9h.1Z"/>
  <polygon class="st2" points="535.5 613 517.1 654.1 551.4 684.9 569.4 642.5 535.5 613"/>
  <path class="st4" d="M546,277.9h-2.6c-27.1,0-54.1,2.9-80.2,8.7-2.4.5-4.7,1-7,1.6-.6,0-1.1.3-1.7.4-2.4.6-4.6,1.1-6.9,1.8-.3,0-.6.2-.8.2-2.1.6-4.3,1.1-6.3,1.8-.5.2-1,.3-1.5.5-2.3.7-4.5,1.3-6.8,2.1h-.4l-16.7-75.5c.5,0,.9-.3,1.4-.4.9-.3,1.9-.6,2.7-.9,2.2-.6,4.3-1.2,6.4-1.8,1-.3,2.1-.6,3.1-.9,2.1-.6,4.3-1.2,6.4-1.8.9-.3,1.8-.5,2.7-.8,3-.9,6.1-1.7,9-2.5,3.5-.9,7-1.9,10.4-2.8,1.1-.3,2.3-.6,3.4-.9,2.4-.7,4.7-1.2,7.1-1.9,1.3-.4,2.7-.8,4.1-1,2.2-.6,4.3-1.1,6.4-1.7,1.4-.4,2.9-.8,4.3-1.1,2.1-.6,4.2-1,6.2-1.5,1.5-.4,2.9-.8,4.4-1.1,2.1-.5,4.2-1,6.1-1.5,1.5-.4,3-.8,4.5-1,2.1-.5,4.2-.9,6.2-1.5,1.5-.4,2.9-.7,4.4-1,2.1-.5,4.3-.9,6.3-1.4,1.4-.4,2.8-.7,4.3-.9.5,0,.9-.2,1.5-.4l19.3,87.3h.3Z"/>
  <path class="st4" d="M564.4,68.7c-4,.8-7.8,1.5-11.7,2.3l-2.7.6c-1.8.4-3.7.8-5.5,1.1l-2.4.5c-10.6,2.2-21.1,4.4-31.3,6.7-29.6,6.5-59.6,13.9-89.1,21.8-13.3,3.6-26.7,7.4-39.8,11.2-4.2,1.2-8.3,2.5-12.5,3.7-1.4.4-2.7.9-4.2,1.2-2.8.9-5.6,1.7-8.4,2.6-1.7.5-3.3,1-4.9,1.5-2.6.8-5,1.6-7.6,2.4-1.8.6-3.5,1.1-5.3,1.7-2.5.8-4.8,1.5-7.3,2.3-1.8.6-3.6,1.1-5.4,1.7-2.4.8-4.7,1.5-7.1,2.3-1.8.6-3.6,1.2-5.5,1.8-2.4.8-4.7,1.6-7.1,2.4-1.8.6-3.6,1.2-5.4,1.8-2.4.8-4.7,1.6-7,2.4-1.8.6-3.6,1.2-5.4,1.8s-1.8.7-2.7.9l-4.5-20.5c13.6-4.7,27.5-9.4,41.3-13.8,18.4-6,37.1-11.6,55.4-16.9,42-12.2,84.9-23.2,127.7-32.6,11.1-2.5,22.3-4.8,33.5-7.1,6.7-1.3,13.4-2.7,20.2-4l4.5,20.3h.2Z"/>
  <path class="st4" d="M271.1,152.7s0,.2-.2.3c-1.2,1.8-2.6,3.7-3.8,5.5-.3.4-.6.8-.9,1.2-1.3,1.9-2.6,3.8-3.9,5.7-8.9,13.1-17.7,26.8-26,40.6-1.9,3.1-3.8,6.2-5.6,9.4-11.2,18.8-21.7,38-31.6,57.5-1.1,2.2-2.3,4.4-3.3,6.6s-1,2.1-1.5,3h0l-10.2,20.7.4-.2c-5.2,11.2-10.2,22.4-14.9,33.7-25.7,60.8-45.5,124.4-58.7,189.2-13.6,66.5-20.5,134.8-20.5,203.3s0,12,.2,18.2c1,55.7,6.5,111.3,16.5,165.5l-44.1-38.7c-7.7-37.3-13.2-75.8-16.4-114.2-2.5-28.3-3.7-57-3.7-85.6,0-67.3,6.8-134.5,20.1-199.8,9.4-45.7,22-91,37.8-135.1.5-1.3.9-2.6,1.4-3.9l3.2-8.7-36.3-10,21.3-116.6c31-14.4,62.9-28.2,94.7-41,26.7-10.8,53.8-21.1,80.8-30.6l5.4,24.2h-.3v-.2Z"/>
  <path class="st4" d="M556.5,166.7c-8.5,1.8-17,3.6-25.2,5.4-29.8,6.5-59.7,14-89.1,21.9-13,3.6-26.5,7.4-39.7,11.2-50.6,14.9-101.1,32.1-149.9,51.1-11,4.3-21.8,8.6-32.5,13,9.7-18.5,20-36.9,30.9-54.7,8.2-13.5,16.8-26.9,25.5-39.9,3-4.4,6.1-8.9,9.1-13.1,33.3-11.6,67.3-22.6,101.2-32.5,13-3.8,26.3-7.6,39.4-11.1,29.2-7.8,58.9-15.1,88.3-21.6,8.2-1.8,16.7-3.7,25.2-5.4l16.7,75.7h0Z"/>
  <path class="st4" d="M91.2,253.1l-10.2,56.2,38,10.5-7.1,19.4c-.5,1.2-.9,2.5-1.3,3.8-15.6,43.5-28.2,88.5-37.4,133.6-13.2,64.7-19.9,131.1-19.9,197.8s1.2,56.7,3.6,84.6c3.1,36.9,8.4,73.7,15.6,109.7l3.2,16.6-12.7-11.1c-7.7-37.3-13.2-75.8-16.4-114.2-2.5-28.3-3.7-57-3.7-85.6,0-67.3,6.8-134.5,20.1-199.8,9.4-45.7,22-91,37.8-135.1.5-1.3.9-2.6,1.4-3.9l3.2-8.7-36.3-10,10.6-58.1,8.3-45.9,2.3-12.6c31-14.4,62.9-28.2,94.7-41,26.7-10.8,53.8-21.1,80.8-30.6l2.3,10.3c-37.1,13.1-73.6,27.4-109.9,42.7-19.7,8.3-39.2,16.9-58.7,25.9l-8.3,45.7h0v-.2h0Z"/>
  <path class="st4" d="M396.3,108.7c-4.7,1.3-9.5,2.7-14.3,4.1-4.2,1.2-8.3,2.5-12.5,3.7-1.4.4-2.7.9-4.2,1.2-2.8.9-5.6,1.7-8.4,2.6-1.7.5-3.3,1-4.9,1.5-2.6.8-5,1.6-7.6,2.4h-.2l-2.3-10.2c17.3-5.4,34.6-10.6,52.1-15.5l2.3,10.2h0Z"/>
  <path class="st4" d="M488.4,84.9c-3.3.8-6.7,1.6-10,2.4l-2.3-10.2c3.3-.8,6.7-1.6,10-2.4h0l2.3,10.1h0Z"/>
  <path class="st4" d="M560,48.3c-6.8,1.3-13.5,2.6-20.2,4-5.2,1-10.5,2.2-15.7,3.3-6,1.2-11.8,2.6-17.7,3.9-2.7.6-5.4,1.2-8.1,1.8-4.7,1-9.5,2.2-14.3,3.3-3.3.8-6.7,1.6-10,2.4-27.5,6.6-55,13.7-82.2,21.4-4.4,1.2-8.8,2.6-13.1,3.8-12.9,3.7-25.9,7.7-38.9,11.7-5.5,1.7-11,3.5-16.5,5.2-13.8,4.4-27.7,9.1-41.3,13.8l2.3,10.2c19.2-6.6,38.5-13,57.9-19,17.3-5.4,34.6-10.6,52.1-15.5l2.3,10.2c8.5-2.5,17-4.7,25.5-7.1,18.7-5,37.6-9.8,56.5-14.4l-2.3-10.2c3.3-.8,6.7-1.6,10-2.4h0l2.3,10.1c4.7-1.1,9.5-2.2,14.3-3.3l-2.3-10.2c8.6-1.9,17.2-3.8,25.8-5.7,4.6-.9,9.2-1.9,13.8-2.8,7.4-1.5,14.7-3,22.1-4.3l-2.3-10.2h0Z"/>
  <path class="st4" d="M528.5,75.9c-6,1.2-11.9,2.6-17.7,3.8-2.7.6-5.5,1.2-8.1,1.8l-2.3-10.2c8.6-1.9,17.2-3.8,25.8-5.7l2.3,10.1s0,.2,0,.2Z"/>
  <path class="st4" d="M546,277.9h-2.6c-8.9,0-17.7.3-26.5.9l-18.1-81.7c.2,0,.5,0,.7-.2,1.5-.4,3-.8,4.5-1,2.1-.5,4.2-.9,6.2-1.5,1.5-.4,2.9-.7,4.4-1,2.1-.5,4.3-.9,6.3-1.4,1.4-.4,2.8-.7,4.3-.9.5,0,.9-.2,1.5-.4l19.3,87.3h0Z"/>
  <path class="st4" d="M391.7,208.6c-4.4,1.3-8.8,2.6-13.2,4.1l-14.6-65.8c4.4-1.3,8.8-2.6,13.2-4l14.6,65.7h0Z"/>
  <path class="st4" d="M470.9,186.5c-9.6,2.5-19.2,5-28.6,7.6-10.3,2.8-20.8,5.8-31.3,8.8l-14.6-65.7c19.9-5.8,39.9-11.2,60-16.3l14.6,65.5h-.1Z"/>
  <path class="st4" d="M509.8,177c-9.4,2.2-18.8,4.4-28.2,6.8l-14.6-65.5c9.4-2.4,18.7-4.6,28.2-6.8l14.6,65.5Z"/>
  <path class="st4" d="M541.9,101.2l-2.3-10.2c-8.5,1.8-16.9,3.6-25.2,5.4-7.2,1.6-14.4,3.2-21.6,4.9-9.4,2.2-18.8,4.4-28.2,6.8-3.6.9-7.1,1.8-10.7,2.6-9.4,2.4-18.6,4.8-27.9,7.3-10.7,2.9-21.5,5.9-32.1,9-2.5.7-4.9,1.4-7.3,2.1-4,1.1-7.9,2.4-11.9,3.5-4.4,1.3-8.9,2.6-13.2,4-25.5,7.8-51,16.2-76.1,25-3,4.3-6.1,8.7-9.1,13.1-.3.5-.7.9-.9,1.4,29.2-10.5,58.6-20.2,88.3-29.4,4.4-1.3,8.8-2.6,13.2-4,6.4-1.9,12.9-3.8,19.3-5.7,19.9-5.8,39.9-11.2,60-16.3l14.6,65.5c3.6-.9,7.1-1.8,10.7-2.7l-14.6-65.5c9.4-2.4,18.7-4.6,28.2-6.8l14.6,65.5c7.2-1.7,14.4-3.3,21.6-4.9,8.2-1.8,16.6-3.7,25.2-5.4l-14.5-65.5v.3h-.1Z"/>
  <path class="st4" d="M516.9,278.7c-11.2.8-22.2,2.1-33.1,3.8l-17.1-77.4c.4,0,.8-.2,1-.3,1.3-.4,2.7-.8,4.1-1,2.2-.6,4.3-1.1,6.4-1.7,1.4-.4,2.9-.8,4.3-1.1,2.1-.6,4.2-1,6.2-1.5,1.5-.4,2.9-.8,4.4-1.1,1.9-.5,3.7-.9,5.6-1.3l18.1,81.7h.1Z"/>
  <path class="st4" d="M621.1,648.6c0,34.4-23.2,65-55.9,74.6l-10.3-46.5,12-28.3c17.8-4.3,35.5-9.2,52.8-14.4.9,4.7,1.3,9.6,1.3,14.6h.1Z"/>
  <path class="st4" d="M555.1,725.5c-3.9.6-7.8.9-11.7.9-35.9,0-66.7-24.4-75.3-58.7,18-2.6,35.9-5.7,54-9.3l22.9,20.5,10.3,46.5h-.2Z"/>
  <path class="st4" d="M531.9,621l-12.2,27.2c-17.9,3.6-35.7,6.6-53.6,9.2-.4-2.9-.5-5.9-.5-8.8,0-34.5,23.2-65,55.9-74.6l10.4,47h0Z"/>
  <path class="st4" d="M617.1,624c-17.3,5.2-34.8,10-52.5,14.3l-22.6-19.6-10.4-47c3.9-.6,7.8-.9,11.7-.9,33.6,0,63.2,21.6,73.7,53.1h0Z"/>
  <path class="st4" d="M707.4,523.3h-.2c-18.3-23.8-41.9-43.8-68.5-57.7-22.1-11.5-46.5-19-71.4-21.9,26.3-7.7,52.1-16.3,77.3-25.9l20.7,11c16.3,30.1,30.3,61.7,42,94.4h.1Z"/>
  <path class="st4" d="M859.5,489.6l-141.9,31.4c-11.9-33.7-26.4-66.3-43.1-97.2l1.7-18.5c23.7-9.9,46.8-20.8,69.2-32.3l22.5,2.2c8.9,7.3,17.5,15.1,25.6,23.3,26.8,26.8,49.1,57.5,66,91.1h0Z"/>
  <path class="st4" d="M739.3,354l-2.3,11.5c-21.3,10.9-43.3,21.1-65.8,30.5l-20.4-12.5c-19.9-31.2-41.9-60.1-66-86.3,2.1.3,4.3.5,6.3.8,10.1,1.3,20.2,3.2,30.2,5.4,20.3,4.5,40.4,11.1,59.6,19.2,20.5,8.7,39.9,19.2,58.2,31.4h.2Z"/>
  <path class="st4" d="M640.2,386.1l-1.2,22.9c-34.7,13-70.5,24.4-107,33.7-11.2.6-22.3,2.1-33.2,4.5-10.6,2.4-21.1,5.6-31.2,9.5l-32.1-145.1c.3,0,.5-.2.8-.2,2.3-.8,4.5-1.4,6.8-2.1.3,0,.6-.2.9-.3,2.2-.7,4.3-1.2,6.4-1.8.4,0,.9-.2,1.2-.4,2.3-.6,4.5-1.2,6.9-1.8.5,0,.9-.2,1.4-.4,2.4-.6,4.7-1.1,7.1-1.6,24.9-5.5,50.7-8.3,76.6-8.3s2.4,0,3.6,0c3.2,0,6.4,0,9.5.2,4.3.2,8.7.4,13,.7,25.9,27.1,49.6,57.4,70.9,90.4h-.4Z"/>
  <path class="st4" d="M293.5,474.4c-15.1.2-30.3,0-45.3-.6l-6.9-9.5c11.2-18.3,24.1-35.5,38.5-51.6l13.7,61.8h0Z"/>
  <path class="st4" d="M336.2,667.6c-52.1.6-96-3.2-128.7-7.7l-17.9-20c1-44.6,10.4-88,27.7-128.9,2.2-5.1,4.4-10.2,6.9-15.3l19.6-11.5c13,.6,26.1.9,39.2.9s8.5,0,12.8,0l40.5,182.7h0v-.2Z"/>
  <path class="st4" d="M397.8,845.3l-3.7,15c-42.9,1.1-84.9-.6-125.3-5.2l-18.8-8.5c-12.8-18.9-23.8-39.1-32.7-60.3-8.3-19.8-14.9-40.4-19.5-61.2-2.6-11.8-4.5-23.8-6-35.9l16.7-18.7c30.6,4.1,70.4,7.6,117.2,7.6h12.7l2.6,11.6c.2,1.2.5,2.5.8,3.7.4,1.8.8,3.5,1.1,4.9,3.1,12.6,7.4,24.8,12.8,36.5,11,38.4,25,75.3,42,110.6h.1Z"/>
  <path class="st4" d="M501.8,999.9c-33.1-3.9-65.3-12.4-96.1-25.3-42.1-17.8-80-43.3-112.5-75.8-4.6-4.6-9.2-9.5-13.5-14.3l3.2-17.4c27.9,2.6,56.5,4,85.6,4s20.3-.2,30.6-.5l20.2,15.9c28.2,49.3,58.2,87.2,82.3,113.5h.2Z"/>
  <path class="st4" d="M504,851.2c-24.8,3.4-49.5,6-74.1,7.5l-21.4-15.2c-11.1-22.6-20.8-46-29.3-70.1,10.4,13.7,22.5,26.1,36,36.9,26.4,20.9,56.5,34.7,88.9,40.9h-.1Z"/>
  <path class="st4" d="M614.8,995.2c-23.3,4.8-47.3,7.2-71.5,7.2s-16.4-.3-24.3-.9h-1.7c-23.8-25-55.4-63-85.3-113.9l3.6-18.7c37.1-2.6,74.4-7.2,111.6-13.9,7.7-.2,15.3-.7,22.9-1.7l15.8,11.2,29,130.9h0v-.2h-.1Z"/>
  <path class="st4" d="M745.1,818.1c-5.6,58.9-18.2,106.7-29.3,139.4-.5.3-.9.6-1.4.9-10.7,5.9-21.8,11.3-33.3,16.2-18.2,7.7-37.1,13.8-56.1,18.3l-28.8-130.4,9.6-17.3c7.4-2.4,14.7-5.1,21.7-8.2,36.4-9.6,72-21.1,106.5-34.4l11.2,15.5h-.2,0Z"/>
  <path class="st4" d="M882.1,751.2c-3.6,11.9-7.8,23.6-12.7,35.2-17.8,42.2-43.3,80-75.8,112.5s-41,36.5-64.1,50.9c10.7-34,22-81.1,26.8-137.7l11.6-23c36.6-15.6,71.4-33.2,104-52.3l10.4,14.5h-.2Z"/>
  <path class="st4" d="M897,659.3c-.5,15.1-1.9,30.3-4.2,45l-13.5,15.8c-34.6,21.2-71.9,40.5-111.3,57.5l-9.6-12.1c.3-24.8-.8-49.8-3.1-74.8l141.8-31.4h-.1Z"/>
  <path class="st4" d="M747.9,768.3l-13,22.8c-23.1,9-46.6,17.2-70.6,24.6,9.6-7,18.7-14.8,27-23.4,26.8-27.7,45.3-61.9,53.4-99.3h0c2.4,25.1,3.4,50.4,2.9,75.3h.3Z"/>
  <path class="st4" d="M534.6,669.8c-21.3,4.4-42,8-62,11-1.9-4.2-3.4-8.6-4.6-13.1,18-2.6,35.9-5.7,54-9.3l12.7,11.4h-.1Z"/>
  <path class="st4" d="M524.8,589c-37.1,13-52.8,38.7-59,53.7,2.5-32,24.9-59.7,55.7-68.7l3.3,15Z"/>
  <path class="st4" d="M690.9,481.4l-36.4-43.2-10.1-5.6c-15.2,5.7-31.3,11.2-48,16.6-9.5-2.6-19.2-4.3-28.9-5.5,26.3-7.7,52.1-16.3,77.3-25.9l15.9,8.5h0l4.7,2.6c9.3,17,17.8,34.6,25.5,52.6h0Z"/>
  <path class="st4" d="M582.9,310.5c-7.8-.2-15.3-.2-22.7,0-44.1,1.1-79.2,8.5-100.9,14.6l2.7,106.9-22.3-100.8-4.3-19.5c.3,0,.5-.2.8-.2,2.3-.8,4.5-1.4,6.8-2.1.3,0,.6-.2.9-.3,2.2-.7,4.3-1.2,6.4-1.8.4,0,.9-.2,1.2-.4,2.3-.6,4.5-1.2,6.9-1.8.5,0,.9-.2,1.4-.4,2.4-.6,4.7-1.1,7.1-1.6,24.9-5.5,50.7-8.3,76.6-8.3s2.4,0,3.6,0c3.2,0,6.4,0,9.5.2,4.3.2,8.7.4,13,.7,3.2,3.3,6.3,6.7,9.5,10.2,1.3,1.5,2.6,3,4.1,4.5h-.3Z"/>
  <path class="st4" d="M284.8,435.2c-15.2,14.7-25.1,30.7-29.8,38.9-2.3,0-4.5,0-6.8-.2l-6.9-9.5c11.2-18.3,24.1-35.5,38.5-51.6l5,22.5h0Z"/>
  <path class="st4" d="M341.5,691.6c-5.7,0-11.2.2-16.5.2-32.5,0-61-1.6-84.6-3.8-9.8-.9-19.2-2-28-3h0l-6.2,7.6s4.9,61.4,18.3,109.5c-2.5-5.1-4.8-10.3-7-15.5-8.3-19.8-14.9-40.4-19.5-61.2-2.6-11.8-4.5-23.8-6-35.9l5.8-6.4,11-12.3c30.6,4.1,70.4,7.6,117.2,7.6h12.7l2.6,11.6c0,.7.3,1.3.4,2h0v-.3h-.2Z"/>
  <path class="st4" d="M449.4,888.2l18.5,53.9c-11.8-16.2-23.9-34.3-35.8-54.5l.9-4.9,2.6-13.8c37.1-2.6,74.4-7.2,111.6-13.9,7.7-.2,15.3-.7,22.9-1.7l12.4,8.7c-46.9,10-90.9,16.1-131.3,19.4l-1.8,6.9h0Z"/>
  <path class="st4" d="M610.7,865.9s4.8,63.2,8.8,102.4l-23.4-105.7,2.4-4.3,7.3-13c7.4-2.4,14.7-5.1,21.7-8.2,36.4-9.6,72-21.1,106.5-34.4l8.2,11.4c-37.2,14.5-79,28.3-125.3,39.8h0l-6.3,12h0Z"/>
  <path class="st4" d="M774.3,774.8c-2.1.9-4.2,1.9-6.3,2.7l-9.6-12.1c.3-24.8-.8-49.8-3.1-74.8l16.9-3.8c.9,12.2,3.6,52.7,2.2,87.8h0v.2Z"/>
  <path class="st4" d="M692.3,413.3l-1.2,12.6s8.2,25,15.6,66.1c-9.5-23.4-20.1-46.1-32-68.1l.3-3.2,1.4-15.3c23.7-9.9,46.8-20.8,69.2-32.3l9.7.9,12.7,1.2c.4.3.7.6,1,.9-3.5,1.9-7.1,3.8-10.8,5.8-19.4,10.2-41.4,20.9-65.9,31.6h0v-.2Z"/>
  <path class="st4" d="M879.7,747.9c-.9.6-1.9,1.1-2.8,1.7-25.9,15.1-59.2,32.6-99.2,50l-7.8,16.2s-8.9,65.9-36.1,119.6c9.3-32.4,18.3-74.4,22.4-123.5l2.1-4.2,9.5-18.7c36.6-15.6,71.4-33.2,104-52.3l8,11.2h-.1Z"/>
  <path class="st4" d="M298.8,498.4h-16.6c-13.6,0-26.6-.3-38.8-.8l-7.5,5.4s-34,61.4-46.2,136.7c1-44.6,10.4-88,27.7-128.9,2-4.7,4.2-9.5,6.3-14.2l.6-1.1,19.6-11.5c13,.6,26.1.9,39.2.9s8.5,0,12.8,0l3,13.6h-.1Z"/>
  <path class="st4" d="M687.7,325.5c-32.1-8.6-62.6-13-90.6-14.5-4-4.7-8.1-9.3-12.2-13.8,2.1.3,4.3.5,6.3.8,10.1,1.3,20.2,3.2,30.2,5.4,20.3,4.5,40.4,11.1,59.6,19.2,2.2.9,4.4,1.9,6.6,2.8h.1Z"/>
  <path class="st4" d="M397.8,845.3l-3.7,15c-25.6.7-50.9.4-75.6-1,15.6-4.3,57.8-19.7,58.4-62,6.3,16.4,13.3,32.3,20.9,48h0Z"/>
  <path class="st4" d="M501.8,999.9c-33.1-3.9-65.3-12.4-96.1-25.3-7.6-3.2-14.9-6.6-22.1-10.3,14.9-3.2,44.1-12.9,59-40.5,20.9,31.5,41.7,56.8,59.3,76.1h0Z"/>
  <path class="st4" d="M614.8,995.2c-23.3,4.8-47.3,7.2-71.5,7.2s-16.4-.3-24.3-.9h-1.7c-2.4-2.5-4.8-5.1-7.4-7.8,15.3-8.4,62.9-38.8,82-101.4l22.8,103h0Z"/>
  <path class="st4" d="M739.3,354l-2.3,11.5c-21.3,10.9-43.3,21.1-65.8,30.5l-13-8c11.8-6.4,49.5-29.3,41.2-57,13.8,6.8,27.1,14.5,39.9,23h0Z"/>
  <path class="st4" d="M640.2,386.1l-1.2,22.9c-24.9,9.4-50.4,17.9-76.3,25.3,49.5-46.1,10.2-106.9-2.5-123.8,7.3-.2,14.8-.2,22.7,0,20.7,23.3,39.9,48.5,57.3,75.6h0Z"/>
  <path class="st4" d="M738.6,516.4c14.2-16.9,44.8-64.2,19.6-134.6,3.7-1.9,7.3-3.9,10.8-5.8,8.5,7.1,16.7,14.6,24.6,22.4,26.8,26.8,49.1,57.5,66,91.1l-120.9,26.8h0Z"/>
  <path class="st4" d="M368.5,956.3c-27.4-15.6-52.7-34.8-75.3-57.5-4.6-4.6-9.2-9.5-13.5-14.3l.8-3.9,1.1-6.1,1.4-7.4c27.9,2.6,56.5,4,85.6,4s20.3-.2,30.6-.5l16.5,13c-16.6.8-32.5,1.1-47.6,1.1-27.5,0-52.1-1.1-73.4-2.8v2.8s36.8,48.8,73.6,71.6h.2Z"/>
  <path class="st4" d="M617.1,624c-17.3,5.2-34.8,10-52.5,14.3l-7.2-6.2c8-4.6,26.3-17.6,30.1-40.7,7.1,2.9,12.7,6.2,16.5,8.7,5.7,7,10.1,15.1,13,24h.1Z"/>
  <path class="st4" d="M604,600.1c-3.9-2.6-9.5-5.8-16.5-8.7-13.4-5.6-31.9-9.8-52.7-5.2l-3.2-14.4c3.9-.6,7.8-.9,11.7-.9,17.3,0,33.5,5.7,46.6,15.6,5.2,3.9,9.9,8.5,14.1,13.6h0Z"/>
  <path class="st4" d="M621.1,648c-4.1,1.2-8.2,2.5-12.3,3.6-15.6,4.4-31.8,8.7-48.5,12.6l6.7-15.7c17.8-4.3,35.5-9.2,52.8-14.4.3,1.4.5,2.9.7,4.3.4,3.1.7,6.3.7,9.5h-.1Z"/>
  <path class="st4" d="M555.1,725.5c-3.9.6-7.8.9-11.7.9-26,0-49.3-12.8-63.4-32.8,14.7,9.1,44.6,24.6,72.6,20.1l2.6,11.7h0Z"/>
  <path class="st4" d="M621.1,648.6c0,34.4-23.2,65-55.9,74.6l-2.6-12c33.8-11.3,43.5-44.6,46.2-59.7,4.2-1.1,8.2-2.4,12.3-3.6v.7h0Z"/>
  <path class="st4" d="M524,638.6l-4.3,9.6c-17.9,3.6-35.7,6.6-53.6,9.2-.4-2.9-.5-5.9-.5-8.8v-.2c10.2-1.1,32.7-4,58.3-9.7h0Z"/>
  <polygon class="st4" points="572 657.4 558.2 691.4 554.9 676.7 566.9 648.5 572 657.4"/>
  <polygon class="st4" points="543.4 580.7 542 618.8 531.6 571.8 543.4 580.7"/>
  <circle class="st3" cx="148.9" cy="245.3" r="33.9"/>
  <path class="st4" d="M175.5,237.7v2.7h0c-1.4,13.5-12.8,24-26.7,24s-25.2-10.5-26.7-24h0c0-.9-.2-1.9-.2-2.7v-1.9c.9-13.9,12.6-24.9,26.7-24.9s25.7,11,26.7,24.9v1.9h.3-.1Z"/>
  <path class="st4" d="M175.5,237.7v2.7h0c-1.4,13.5-12.8,24-26.7,24s-25.2-10.5-26.7-24h0c0-.9-.2-1.9-.2-2.7v-1.9c5.1-8.8,15.1-14.7,26.7-14.7s21.6,6,26.7,14.7v1.9h.3-.1Z"/>
  <path class="st4" d="M629.6,648.6c0,41.2-28.9,75.7-67.6,84.2-6,1.3-12.3,2.1-18.6,2.1-42.4,0-77.7-30.7-84.9-71.1-.9-4.9-1.3-10-1.3-15.1,0-41.2,28.9-75.7,67.6-84.2,6-1.3,12.3-2.1,18.6-2.1,40,0,73.6,27.2,83.4,64.1,1.9,7.1,2.8,14.5,2.8,22.1h0Z"/>
  <path class="st4" d="M574.6,75.4c-9.5,1.8-19,3.6-28.5,5.6-.8.2-1.6.3-2.4.5-10.4,2.1-20.8,4.3-31.2,6.6-29.7,6.6-59.3,13.8-88.7,21.7-13.2,3.6-26.5,7.3-39.6,11.2-35.1,10.2-69.9,21.5-104.3,33.6h0l-8.2-37.2c16.2-5.7,32.3-11.1,48.7-16.4,18.4-6,37-11.6,55.7-17,42.2-12.3,85-23.2,128.3-32.8,11.2-2.5,22.3-4.8,33.6-7.1,9.5-1.9,18.9-3.8,28.5-5.6l8.2,37h0Z"/>
  <path class="st4" d="M271.9,117.3c-30.4,10.6-60.5,21.9-90.2,33.9-33.5,13.5-66.6,27.9-99.1,43.1l-8.3,45.9-15,82.7,34.9,9.6c-.5,1.3-.9,2.6-1.4,4-16,44.4-28.7,90-38.2,136.2-13.5,65.9-20.3,133.7-20.3,201.6s1.2,57.7,3.7,86.2c3.3,38.9,8.9,77.4,16.6,115.3.2.9.4,1.8.6,2.7h0l61.2,53.6c1.2,1.1,3.1,0,2.8-1.6h0c-12.3-60-19-121.7-20.1-183.5,0-6.1-.2-12-.2-18.1,0-67.9,6.8-135.7,20.3-201.6,13.1-64.2,32.7-127.2,58.2-187.6,7.7-18.2,15.9-36,24.7-53.7,12.8-25.9,26.8-51.1,41.7-75.8,8.3-13.6,16.8-27,25.8-40.2,3.5-5.2,7.1-10.4,10.7-15.5h0l-8.2-37.2h0v-.2h0l-.2.2Z"/>
  <path class="st4" d="M566.6,173.3c-1.3.3-2.6.6-3.9.8-9.9,2-19.9,4.2-29.7,6.3-29.7,6.5-59.3,13.8-88.6,21.8-13.2,3.6-26.5,7.4-39.6,11.2-50.5,14.9-100.3,31.9-149.3,50.9-17.9,6.9-35.6,14.2-53.3,21.6l-.4.2c12.8-25.9,26.8-51.1,41.8-75.8,8.3-13.6,16.8-27,25.8-40.2,3.5-5.2,10.7-15.5,10.7-15.5,34.4-12.1,69.2-23.4,104.3-33.6,13.1-3.9,26.4-7.6,39.6-11.2,29.4-7.9,59-15.2,88.7-21.7,10.4-2.3,20.8-4.5,31.2-6.6.8-.2,1.6-.3,2.4-.5l20.4,92.4h0v-.2h-.1Z"/>
  <path class="st4" d="M866,496.9l-159.3,35.3c-1.8.4-3.7-.3-4.8-1.8-36-48.3-93.7-79.5-158.5-79.5,0,0-29,1.6-42.8,4.6-11.7,2.6-23.1,6.2-33.9,10.8-2.7,1.1-5.9-.5-6.4-3.3l-34.8-156.9c13-4.5,26.2-8.2,39.6-11.2,25.5-5.7,51.7-8.5,78.4-8.5s8.9,0,13.2.3c12,.4,24,1.4,35.8,3,10.4,1.4,20.7,3.2,30.9,5.6,20.8,4.7,41.2,11.2,61.1,19.7,43.1,18.2,81.9,44.3,115.1,77.6,28.7,28.7,52.2,61.5,69.8,97.8,1.3,2.7-.3,6.1-3.2,6.7h0l-.2-.2Z"/>
  <path class="st4" d="M626.7,626.5c-26.2,8.1-54,15.6-83.4,22.1"/>
  <path class="st4" d="M899.9,650c3-.7,5.8,1.6,5.8,4.7-.3,19.8-2.2,39.3-5.7,58.5-4.7,26.2-12.3,51.7-22.8,76.5-18.2,43.1-44.3,81.9-77.6,115.1-24.3,24.2-51.4,44.7-81,61.1-11.1,6.1-22.4,11.6-34.1,16.5-20.3,8.6-41.3,15.3-62.7,20-25.5,5.7-51.7,8.5-78.4,8.5s-16.6-.3-24.9-.9c-40.2-2.6-79.1-12-116.2-27.6-43.1-18.2-81.9-44.3-115.1-77.6-14.7-14.7-28-30.4-39.8-47.1-15-21.2-27.7-44-37.9-68.1-8.6-20.3-15.3-41.3-19.9-62.7-4.7-21.6-7.5-43.5-8.2-65.9h0c-.2-4.2-.2-8.3-.2-12.5,0-48.9,9.5-96.3,28.5-141,4.3-10.2,9.1-20.1,14.2-29.8,14.8-27.7,33.1-53.2,54.7-76.4,2.6-2.7,7.3-1.5,8,2.3l16.8,75.8,42.7,193.1h0l3.3,15.1h0c.3,1.2.5,2.5.8,3.7.4,1.6.8,3.2,1.1,4.7,21.3,86.3,99.2,150.2,192,150.2s27.2-1.4,40.2-4.1c.7-.2,1.3-.3,2.1-.5h1.1c75.4-16.8,134.7-76.9,150.4-152.8.4-1.8,1.8-3.3,3.6-3.7l8.6-1.9,150.6-33.4h0v-.3h0v.5Z"/>
  <path class="st4" d="M556.6,286.6c-4.4-.2-8.8-.3-13.2-.3-26.7,0-52.8,2.8-78.4,8.5-13.3,2.9-26.6,6.7-39.6,11.2l-20.5-92.5c13.1-3.9,26.4-7.7,39.6-11.2,29.4-8,58.9-15.3,88.6-21.8l23.5,106.2h0Z"/>
  <path class="st4" d="M350.2,691.4c.4,1.6.8,3.2,1,4.7h0c15,65.7,37.4,121.8,62.2,168.7,35.1,66.4,74.8,114.4,105,145.2"/>
  <path class="st4" d="M718.5,965.9c14.4-40.7,30.2-101.1,33.8-176,1.6-32.8.9-68.4-3.1-106.5"/>
  <path class="st4" d="M568.2,287.1c26.2,26.8,59.6,66.4,90.8,119.6,20.6,35.2,40.3,76.2,56.3,123.5"/>
  <path class="st4" d="M247.5,857.7c41.6,5.9,98.2,10.3,166.1,7.2,50.9-2.4,108.1-9,170.1-22.5.7-.2,1.3-.3,2.1-.5h1.1"/>
  <path class="st4" d="M223.7,477.8c24,1.5,50.6,2.3,79.6,1.7"/>
  <path class="st4" d="M899.9,713.2c-35.3,22.9-84.7,50.8-147.6,76.6-47.6,19.6-103,37.9-165.7,51.8h-1.1"/>
  <path class="st4" d="M500.6,455.5h.3c59.5-13.1,112.2-30.3,158.2-48.7,39-15.6,73.1-32.1,101.9-47.9"/>
  <polyline class="st4" points="586.2 841.8 601.4 910.8 621.7 1002.4"/>
  <polyline class="st4" points="524.7 564.4 543.4 648.6 549.2 674.9 562 732.9"/>
  <path class="st4" d="M181.3,661.1c38.3,6.6,94.7,13,164.8,11.5"/>
  <path class="st4" d="M458.5,663.8c27.1-3.7,55.5-8.6,84.9-15.1"/>
  <path class="st4" d="M741,345l-5.2,27.1,46.8,4.5s-22.3-19.9-41.6-31.7h0Z"/>
  <path class="st4" d="M886.7,757.7l-18.1-25.2,27.2-31.8s-.8,28.1-9.2,57h0Z"/>
  <polygon class="st4" points="753.2 759 771.4 781.7 749.7 824.6 730.9 798.3 753.2 759"/>
  <polygon class="st4" points="673.7 433.3 676.7 399.4 640.6 377.3 638.7 414.7 673.7 433.3"/>
  <path class="st4" d="M235.9,456.8l16.2,22.4-40.6,23.9s11.8-27.5,24.4-46.3h0Z"/>
  <path class="st4" d="M278.2,892.5l5.8-30.5-38.1-17.3s12.6,25.1,32.3,47.8h0Z"/>
  <polygon class="st4" points="399.8 837.2 393 865.6 430.6 895.3 436.6 863.5 399.8 837.2"/>
  <polygon class="st4" points="586.8 844.8 563.7 848.7 592.5 869 607.8 840.2 586.8 844.8"/>
  <path class="st4" d="M180.8,629.8l32,36.1-28.5,31.9s-5.9-49.8-3.6-67.9h.1Z"/>
  <polygon class="st4" points="535.5 613 517.1 654.1 551.4 684.9 569.4 642.5 535.5 613"/>
  <path class="st11" d="M546,277.9h-2.6c-27.1,0-54.1,2.9-80.2,8.7-2.4.5-4.7,1-7,1.6-.6,0-1.1.3-1.7.4-2.4.6-4.6,1.1-6.9,1.8-.3,0-.6.2-.8.2-2.1.6-4.3,1.1-6.3,1.8-.5.2-1,.3-1.5.5-2.3.7-4.5,1.3-6.8,2.1h-.4l-16.7-75.5c.5,0,.9-.3,1.4-.4.9-.3,1.9-.6,2.7-.9,2.2-.6,4.3-1.2,6.4-1.8,1-.3,2.1-.6,3.1-.9,2.1-.6,4.3-1.2,6.4-1.8.9-.3,1.8-.5,2.7-.8,3-.9,6.1-1.7,9-2.5,3.5-.9,7-1.9,10.4-2.8,1.1-.3,2.3-.6,3.4-.9,2.4-.7,4.7-1.2,7.1-1.9,1.3-.4,2.7-.8,4.1-1,2.2-.6,4.3-1.1,6.4-1.7,1.4-.4,2.9-.8,4.3-1.1,2.1-.6,4.2-1,6.2-1.5,1.5-.4,2.9-.8,4.4-1.1,2.1-.5,4.2-1,6.1-1.5,1.5-.4,3-.8,4.5-1,2.1-.5,4.2-.9,6.2-1.5,1.5-.4,2.9-.7,4.4-1,2.1-.5,4.3-.9,6.3-1.4,1.4-.4,2.8-.7,4.3-.9.5,0,.9-.2,1.5-.4l19.3,87.3h.3Z"/>
  <path class="st11" d="M564.4,68.7c-4,.8-7.8,1.5-11.7,2.3l-2.7.6c-1.8.4-3.7.8-5.5,1.1l-2.4.5c-10.6,2.2-21.1,4.4-31.3,6.7-29.6,6.5-59.6,13.9-89.1,21.8-13.3,3.6-26.7,7.4-39.8,11.2-4.2,1.2-8.3,2.5-12.5,3.7-1.4.4-2.7.9-4.2,1.2-2.8.9-5.6,1.7-8.4,2.6-1.7.5-3.3,1-4.9,1.5-2.6.8-5,1.6-7.6,2.4-1.8.6-3.5,1.1-5.3,1.7-2.5.8-4.8,1.5-7.3,2.3-1.8.6-3.6,1.1-5.4,1.7-2.4.8-4.7,1.5-7.1,2.3-1.8.6-3.6,1.2-5.5,1.8-2.4.8-4.7,1.6-7.1,2.4-1.8.6-3.6,1.2-5.4,1.8-2.4.8-4.7,1.6-7,2.4-1.8.6-3.6,1.2-5.4,1.8s-1.8.7-2.7.9l-4.5-20.5c13.6-4.7,27.5-9.4,41.3-13.8,18.4-6,37.1-11.6,55.4-16.9,42-12.2,84.9-23.2,127.7-32.6,11.1-2.5,22.3-4.8,33.5-7.1,6.7-1.3,13.4-2.7,20.2-4l4.5,20.3h.2Z"/>
  <path class="st11" d="M271.1,152.7s0,.2-.2.3c-1.2,1.8-2.6,3.7-3.8,5.5-.3.4-.6.8-.9,1.2-1.3,1.9-2.6,3.8-3.9,5.7-8.9,13.1-17.7,26.8-26,40.6-1.9,3.1-3.8,6.2-5.6,9.4-11.2,18.8-21.7,38-31.6,57.5-1.1,2.2-2.3,4.4-3.3,6.6s-1,2.1-1.5,3h0l-10.2,20.7.4-.2c-5.2,11.2-10.2,22.4-14.9,33.7-25.7,60.8-45.5,124.4-58.7,189.2-13.6,66.5-20.5,134.8-20.5,203.3s0,12,.2,18.2c1,55.7,6.5,111.3,16.5,165.5l-44.1-38.7c-7.7-37.3-13.2-75.8-16.4-114.2-2.5-28.3-3.7-57-3.7-85.6,0-67.3,6.8-134.5,20.1-199.8,9.4-45.7,22-91,37.8-135.1.5-1.3.9-2.6,1.4-3.9l3.2-8.7-36.3-10,21.3-116.6c31-14.4,62.9-28.2,94.7-41,26.7-10.8,53.8-21.1,80.8-30.6l5.4,24.2h-.3v-.2Z"/>
  <path class="st11" d="M556.5,166.7c-8.5,1.8-17,3.6-25.2,5.4-29.8,6.5-59.7,14-89.1,21.9-13,3.6-26.5,7.4-39.7,11.2-50.6,14.9-101.1,32.1-149.9,51.1-11,4.3-21.8,8.6-32.5,13,9.7-18.5,20-36.9,30.9-54.7,8.2-13.5,16.8-26.9,25.5-39.9,3-4.4,6.1-8.9,9.1-13.1,33.3-11.6,67.3-22.6,101.2-32.5,13-3.8,26.3-7.6,39.4-11.1,29.2-7.8,58.9-15.1,88.3-21.6,8.2-1.8,16.7-3.7,25.2-5.4l16.7,75.7h0Z"/>
  <path class="st0" d="M91.2,253.1l-10.2,56.2,38,10.5-7.1,19.4c-.5,1.2-.9,2.5-1.3,3.8-15.6,43.5-28.2,88.5-37.4,133.6-13.2,64.7-19.9,131.1-19.9,197.8s1.2,56.7,3.6,84.6c3.1,36.9,8.4,73.7,15.6,109.7l3.2,16.6-12.7-11.1c-7.7-37.3-13.2-75.8-16.4-114.2-2.5-28.3-3.7-57-3.7-85.6,0-67.3,6.8-134.5,20.1-199.8,9.4-45.7,22-91,37.8-135.1.5-1.3.9-2.6,1.4-3.9l3.2-8.7-36.3-10,10.6-58.1,8.3-45.9,2.3-12.6c31-14.4,62.9-28.2,94.7-41,26.7-10.8,53.8-21.1,80.8-30.6l2.3,10.3c-37.1,13.1-73.6,27.4-109.9,42.7-19.7,8.3-39.2,16.9-58.7,25.9l-8.3,45.7h0v-.2h0Z"/>
  <path class="st7" d="M396.3,108.7c-4.7,1.3-9.5,2.7-14.3,4.1-4.2,1.2-8.3,2.5-12.5,3.7-1.4.4-2.7.9-4.2,1.2-2.8.9-5.6,1.7-8.4,2.6-1.7.5-3.3,1-4.9,1.5-2.6.8-5,1.6-7.6,2.4h-.2l-2.3-10.2c17.3-5.4,34.6-10.6,52.1-15.5l2.3,10.2h0Z"/>
  <path class="st7" d="M488.4,84.9c-3.3.8-6.7,1.6-10,2.4l-2.3-10.2c3.3-.8,6.7-1.6,10-2.4h0l2.3,10.1h0Z"/>
  <path class="st0" d="M560,48.3c-6.8,1.3-13.5,2.6-20.2,4-5.2,1-10.5,2.2-15.7,3.3-6,1.2-11.8,2.6-17.7,3.9-2.7.6-5.4,1.2-8.1,1.8-4.7,1-9.5,2.2-14.3,3.3-3.3.8-6.7,1.6-10,2.4-27.5,6.6-55,13.7-82.2,21.4-4.4,1.2-8.8,2.6-13.1,3.8-12.9,3.7-25.9,7.7-38.9,11.7-5.5,1.7-11,3.5-16.5,5.2-13.8,4.4-27.7,9.1-41.3,13.8l2.3,10.2c19.2-6.6,38.5-13,57.9-19,17.3-5.4,34.6-10.6,52.1-15.5l2.3,10.2c8.5-2.5,17-4.7,25.5-7.1,18.7-5,37.6-9.8,56.5-14.4l-2.3-10.2c3.3-.8,6.7-1.6,10-2.4h0l2.3,10.1c4.7-1.1,9.5-2.2,14.3-3.3l-2.3-10.2c8.6-1.9,17.2-3.8,25.8-5.7,4.6-.9,9.2-1.9,13.8-2.8,7.4-1.5,14.7-3,22.1-4.3l-2.3-10.2h0Z"/>
  <path class="st7" d="M528.5,75.9c-6,1.2-11.9,2.6-17.7,3.8-2.7.6-5.5,1.2-8.1,1.8l-2.3-10.2c8.6-1.9,17.2-3.8,25.8-5.7l2.3,10.1s0,.2,0,.2Z"/>
  <path class="st0" d="M546,277.9h-2.6c-8.9,0-17.7.3-26.5.9l-18.1-81.7c.2,0,.5,0,.7-.2,1.5-.4,3-.8,4.5-1,2.1-.5,4.2-.9,6.2-1.5,1.5-.4,2.9-.7,4.4-1,2.1-.5,4.3-.9,6.3-1.4,1.4-.4,2.8-.7,4.3-.9.5,0,.9-.2,1.5-.4l19.3,87.3h0Z"/>
  <path class="st7" d="M391.7,208.6c-4.4,1.3-8.8,2.6-13.2,4.1l-14.6-65.8c4.4-1.3,8.8-2.6,13.2-4l14.6,65.7h0Z"/>
  <path class="st7" d="M470.9,186.5c-9.6,2.5-19.2,5-28.6,7.6-10.3,2.8-20.8,5.8-31.3,8.8l-14.6-65.7c19.9-5.8,39.9-11.2,60-16.3l14.6,65.5h-.1Z"/>
  <path class="st7" d="M509.8,177c-9.4,2.2-18.8,4.4-28.2,6.8l-14.6-65.5c9.4-2.4,18.7-4.6,28.2-6.8l14.6,65.5Z"/>
  <path class="st0" d="M541.9,101.2l-2.3-10.2c-8.5,1.8-16.9,3.6-25.2,5.4-7.2,1.6-14.4,3.2-21.6,4.9-9.4,2.2-18.8,4.4-28.2,6.8-3.6.9-7.1,1.8-10.7,2.6-9.4,2.4-18.6,4.8-27.9,7.3-10.7,2.9-21.5,5.9-32.1,9-2.5.7-4.9,1.4-7.3,2.1-4,1.1-7.9,2.4-11.9,3.5-4.4,1.3-8.9,2.6-13.2,4-25.5,7.8-51,16.2-76.1,25-3,4.3-6.1,8.7-9.1,13.1-.3.5-.7.9-.9,1.4,29.2-10.5,58.6-20.2,88.3-29.4,4.4-1.3,8.8-2.6,13.2-4,6.4-1.9,12.9-3.8,19.3-5.7,19.9-5.8,39.9-11.2,60-16.3l14.6,65.5c3.6-.9,7.1-1.8,10.7-2.7l-14.6-65.5c9.4-2.4,18.7-4.6,28.2-6.8l14.6,65.5c7.2-1.7,14.4-3.3,21.6-4.9,8.2-1.8,16.6-3.7,25.2-5.4l-14.5-65.5v.3h-.1Z"/>
  <path class="st7" d="M516.9,278.7c-11.2.8-22.2,2.1-33.1,3.8l-17.1-77.4c.4,0,.8-.2,1-.3,1.3-.4,2.7-.8,4.1-1,2.2-.6,4.3-1.1,6.4-1.7,1.4-.4,2.9-.8,4.3-1.1,2.1-.6,4.2-1,6.2-1.5,1.5-.4,2.9-.8,4.4-1.1,1.9-.5,3.7-.9,5.6-1.3l18.1,81.7h.1Z"/>
  <path class="st10" d="M621.1,648.6c0,34.4-23.2,65-55.9,74.6l-10.3-46.5,12-28.3c17.8-4.3,35.5-9.2,52.8-14.4.9,4.7,1.3,9.6,1.3,14.6h.1Z"/>
  <path class="st10" d="M555.1,725.5c-3.9.6-7.8.9-11.7.9-35.9,0-66.7-24.4-75.3-58.7,18-2.6,35.9-5.7,54-9.3l22.9,20.5,10.3,46.5h-.2Z"/>
  <path class="st10" d="M531.9,621l-12.2,27.2c-17.9,3.6-35.7,6.6-53.6,9.2-.4-2.9-.5-5.9-.5-8.8,0-34.5,23.2-65,55.9-74.6l10.4,47h0Z"/>
  <path class="st10" d="M617.1,624c-17.3,5.2-34.8,10-52.5,14.3l-22.6-19.6-10.4-47c3.9-.6,7.8-.9,11.7-.9,33.6,0,63.2,21.6,73.7,53.1h0Z"/>
  <path class="st10" d="M707.4,523.3h-.2c-18.3-23.8-41.9-43.8-68.5-57.7-22.1-11.5-46.5-19-71.4-21.9,26.3-7.7,52.1-16.3,77.3-25.9l20.7,11c16.3,30.1,30.3,61.7,42,94.4h.1Z"/>
  <path class="st10" d="M859.5,489.6l-141.9,31.4c-11.9-33.7-26.4-66.3-43.1-97.2l1.7-18.5c23.7-9.9,46.8-20.8,69.2-32.3l22.5,2.2c8.9,7.3,17.5,15.1,25.6,23.3,26.8,26.8,49.1,57.5,66,91.1h0Z"/>
  <path class="st10" d="M739.3,354l-2.3,11.5c-21.3,10.9-43.3,21.1-65.8,30.5l-20.4-12.5c-19.9-31.2-41.9-60.1-66-86.3,2.1.3,4.3.5,6.3.8,10.1,1.3,20.2,3.2,30.2,5.4,20.3,4.5,40.4,11.1,59.6,19.2,20.5,8.7,39.9,19.2,58.2,31.4h.2Z"/>
  <path class="st10" d="M640.2,386.1l-1.2,22.9c-34.7,13-70.5,24.4-107,33.7-11.2.6-22.3,2.1-33.2,4.5-10.6,2.4-21.1,5.6-31.2,9.5l-32.1-145.1c.3,0,.5-.2.8-.2,2.3-.8,4.5-1.4,6.8-2.1.3,0,.6-.2.9-.3,2.2-.7,4.3-1.2,6.4-1.8.4,0,.9-.2,1.2-.4,2.3-.6,4.5-1.2,6.9-1.8.5,0,.9-.2,1.4-.4,2.4-.6,4.7-1.1,7.1-1.6,24.9-5.5,50.7-8.3,76.6-8.3s2.4,0,3.6,0c3.2,0,6.4,0,9.5.2,4.3.2,8.7.4,13,.7,25.9,27.1,49.6,57.4,70.9,90.4h-.4Z"/>
  <path class="st10" d="M293.5,474.4c-15.1.2-30.3,0-45.3-.6l-6.9-9.5c11.2-18.3,24.1-35.5,38.5-51.6l13.7,61.8h0Z"/>
  <path class="st10" d="M336.2,667.6c-52.1.6-96-3.2-128.7-7.7l-17.9-20c1-44.6,10.4-88,27.7-128.9,2.2-5.1,4.4-10.2,6.9-15.3l19.6-11.5c13,.6,26.1.9,39.2.9s8.5,0,12.8,0l40.5,182.7h0v-.2Z"/>
  <path class="st10" d="M397.8,845.3l-3.7,15c-42.9,1.1-84.9-.6-125.3-5.2l-18.8-8.5c-12.8-18.9-23.8-39.1-32.7-60.3-8.3-19.8-14.9-40.4-19.5-61.2-2.6-11.8-4.5-23.8-6-35.9l16.7-18.7c30.6,4.1,70.4,7.6,117.2,7.6h12.7l2.6,11.6c.2,1.2.5,2.5.8,3.7.4,1.8.8,3.5,1.1,4.9,3.1,12.6,7.4,24.8,12.8,36.5,11,38.4,25,75.3,42,110.6h.1Z"/>
  <path class="st10" d="M501.8,999.9c-33.1-3.9-65.3-12.4-96.1-25.3-42.1-17.8-80-43.3-112.5-75.8-4.6-4.6-9.2-9.5-13.5-14.3l3.2-17.4c27.9,2.6,56.5,4,85.6,4s20.3-.2,30.6-.5l20.2,15.9c28.2,49.3,58.2,87.2,82.3,113.5h.2Z"/>
  <path class="st10" d="M504,851.2c-24.8,3.4-49.5,6-74.1,7.5l-21.4-15.2c-11.1-22.6-20.8-46-29.3-70.1,10.4,13.7,22.5,26.1,36,36.9,26.4,20.9,56.5,34.7,88.9,40.9h-.1Z"/>
  <path class="st10" d="M614.8,995.2c-23.3,4.8-47.3,7.2-71.5,7.2s-16.4-.3-24.3-.9h-1.7c-23.8-25-55.4-63-85.3-113.9l3.6-18.7c37.1-2.6,74.4-7.2,111.6-13.9,7.7-.2,15.3-.7,22.9-1.7l15.8,11.2,29,130.9h0v-.2h-.1Z"/>
  <path class="st9" d="M745.1,818.1c-5.6,58.9-18.2,106.7-29.3,139.4-.5.3-.9.6-1.4.9-10.7,5.9-21.8,11.3-33.3,16.2-18.2,7.7-37.1,13.8-56.1,18.3l-28.8-130.4,9.6-17.3c7.4-2.4,14.7-5.1,21.7-8.2,36.4-9.6,72-21.1,106.5-34.4l11.2,15.5h-.2,0Z"/>
  <path class="st9" d="M882.1,751.2c-3.6,11.9-7.8,23.6-12.7,35.2-17.8,42.2-43.3,80-75.8,112.5s-41,36.5-64.1,50.9c10.7-34,22-81.1,26.8-137.7l11.6-23c36.6-15.6,71.4-33.2,104-52.3l10.4,14.5h-.2Z"/>
  <path class="st9" d="M897,659.3c-.5,15.1-1.9,30.3-4.2,45l-13.5,15.8c-34.6,21.2-71.9,40.5-111.3,57.5l-9.6-12.1c.3-24.8-.8-49.8-3.1-74.8l141.8-31.4h-.1Z"/>
  <path class="st9" d="M747.9,768.3l-13,22.8c-23.1,9-46.6,17.2-70.6,24.6,9.6-7,18.7-14.8,27-23.4,26.8-27.7,45.3-61.9,53.4-99.3h0c2.4,25.1,3.4,50.4,2.9,75.3h.3Z"/>
  <path class="st8" d="M534.6,669.8c-21.3,4.4-42,8-62,11-1.9-4.2-3.4-8.6-4.6-13.1,18-2.6,35.9-5.7,54-9.3l12.7,11.4h-.1Z"/>
  <path class="st8" d="M524.8,589c-37.1,13-52.8,38.7-59,53.7,2.5-32,24.9-59.7,55.7-68.7l3.3,15Z"/>
  <path class="st8" d="M690.9,481.4l-36.4-43.2-10.1-5.6c-15.2,5.7-31.3,11.2-48,16.6-9.5-2.6-19.2-4.3-28.9-5.5,26.3-7.7,52.1-16.3,77.3-25.9l15.9,8.5h0l4.7,2.6c9.3,17,17.8,34.6,25.5,52.6h0Z"/>
  <path class="st8" d="M582.9,310.5c-7.8-.2-15.3-.2-22.7,0-44.1,1.1-79.2,8.5-100.9,14.6l2.7,106.9-22.3-100.8-4.3-19.5c.3,0,.5-.2.8-.2,2.3-.8,4.5-1.4,6.8-2.1.3,0,.6-.2.9-.3,2.2-.7,4.3-1.2,6.4-1.8.4,0,.9-.2,1.2-.4,2.3-.6,4.5-1.2,6.9-1.8.5,0,.9-.2,1.4-.4,2.4-.6,4.7-1.1,7.1-1.6,24.9-5.5,50.7-8.3,76.6-8.3s2.4,0,3.6,0c3.2,0,6.4,0,9.5.2,4.3.2,8.7.4,13,.7,3.2,3.3,6.3,6.7,9.5,10.2,1.3,1.5,2.6,3,4.1,4.5h-.3Z"/>
  <path class="st8" d="M284.8,435.2c-15.2,14.7-25.1,30.7-29.8,38.9-2.3,0-4.5,0-6.8-.2l-6.9-9.5c11.2-18.3,24.1-35.5,38.5-51.6l5,22.5h0Z"/>
  <path class="st8" d="M341.5,691.6c-5.7,0-11.2.2-16.5.2-32.5,0-61-1.6-84.6-3.8-9.8-.9-19.2-2-28-3h0l-6.2,7.6s4.9,61.4,18.3,109.5c-2.5-5.1-4.8-10.3-7-15.5-8.3-19.8-14.9-40.4-19.5-61.2-2.6-11.8-4.5-23.8-6-35.9l5.8-6.4,11-12.3c30.6,4.1,70.4,7.6,117.2,7.6h12.7l2.6,11.6c0,.7.3,1.3.4,2h0v-.3h-.2Z"/>
  <path class="st8" d="M449.4,888.2l18.5,53.9c-11.8-16.2-23.9-34.3-35.8-54.5l.9-4.9,2.6-13.8c37.1-2.6,74.4-7.2,111.6-13.9,7.7-.2,15.3-.7,22.9-1.7l12.4,8.7c-46.9,10-90.9,16.1-131.3,19.4l-1.8,6.9h0Z"/>
  <path class="st10" d="M610.7,865.9s4.8,63.2,8.8,102.4l-23.4-105.7,2.4-4.3,7.3-13c7.4-2.4,14.7-5.1,21.7-8.2,36.4-9.6,72-21.1,106.5-34.4l8.2,11.4c-37.2,14.5-79,28.3-125.3,39.8h0l-6.3,12h0Z"/>
  <path class="st10" d="M774.3,774.8c-2.1.9-4.2,1.9-6.3,2.7l-9.6-12.1c.3-24.8-.8-49.8-3.1-74.8l16.9-3.8c.9,12.2,3.6,52.7,2.2,87.8h0v.2Z"/>
  <path class="st8" d="M692.3,413.3l-1.2,12.6s8.2,25,15.6,66.1c-9.5-23.4-20.1-46.1-32-68.1l.3-3.2,1.4-15.3c23.7-9.9,46.8-20.8,69.2-32.3l9.7.9,12.7,1.2c.4.3.7.6,1,.9-3.5,1.9-7.1,3.8-10.8,5.8-19.4,10.2-41.4,20.9-65.9,31.6h0v-.2Z"/>
  <path class="st10" d="M879.7,747.9c-.9.6-1.9,1.1-2.8,1.7-25.9,15.1-59.2,32.6-99.2,50l-7.8,16.2s-8.9,65.9-36.1,119.6c9.3-32.4,18.3-74.4,22.4-123.5l2.1-4.2,9.5-18.7c36.6-15.6,71.4-33.2,104-52.3l8,11.2h-.1Z"/>
  <path class="st8" d="M298.8,498.4h-16.6c-13.6,0-26.6-.3-38.8-.8l-7.5,5.4s-34,61.4-46.2,136.7c1-44.6,10.4-88,27.7-128.9,2-4.7,4.2-9.5,6.3-14.2l.6-1.1,19.6-11.5c13,.6,26.1.9,39.2.9s8.5,0,12.8,0l3,13.6h-.1Z"/>
  <path class="st8" d="M687.7,325.5c-32.1-8.6-62.6-13-90.6-14.5-4-4.7-8.1-9.3-12.2-13.8,2.1.3,4.3.5,6.3.8,10.1,1.3,20.2,3.2,30.2,5.4,20.3,4.5,40.4,11.1,59.6,19.2,2.2.9,4.4,1.9,6.6,2.8h.1Z"/>
  <path class="st9" d="M397.8,845.3l-3.7,15c-25.6.7-50.9.4-75.6-1,15.6-4.3,57.8-19.7,58.4-62,6.3,16.4,13.3,32.3,20.9,48h0Z"/>
  <path class="st9" d="M501.8,999.9c-33.1-3.9-65.3-12.4-96.1-25.3-7.6-3.2-14.9-6.6-22.1-10.3,14.9-3.2,44.1-12.9,59-40.5,20.9,31.5,41.7,56.8,59.3,76.1h0Z"/>
  <path class="st9" d="M614.8,995.2c-23.3,4.8-47.3,7.2-71.5,7.2s-16.4-.3-24.3-.9h-1.7c-2.4-2.5-4.8-5.1-7.4-7.8,15.3-8.4,62.9-38.8,82-101.4l22.8,103h0Z"/>
  <path class="st9" d="M739.3,354l-2.3,11.5c-21.3,10.9-43.3,21.1-65.8,30.5l-13-8c11.8-6.4,49.5-29.3,41.2-57,13.8,6.8,27.1,14.5,39.9,23h0Z"/>
  <path class="st9" d="M640.2,386.1l-1.2,22.9c-24.9,9.4-50.4,17.9-76.3,25.3,49.5-46.1,10.2-106.9-2.5-123.8,7.3-.2,14.8-.2,22.7,0,20.7,23.3,39.9,48.5,57.3,75.6h0Z"/>
  <path class="st9" d="M738.6,516.4c14.2-16.9,44.8-64.2,19.6-134.6,3.7-1.9,7.3-3.9,10.8-5.8,8.5,7.1,16.7,14.6,24.6,22.4,26.8,26.8,49.1,57.5,66,91.1l-120.9,26.8h0Z"/>
  <path class="st8" d="M368.5,956.3c-27.4-15.6-52.7-34.8-75.3-57.5-4.6-4.6-9.2-9.5-13.5-14.3l.8-3.9,1.1-6.1,1.4-7.4c27.9,2.6,56.5,4,85.6,4s20.3-.2,30.6-.5l16.5,13c-16.6.8-32.5,1.1-47.6,1.1-27.5,0-52.1-1.1-73.4-2.8v2.8s36.8,48.8,73.6,71.6h.2Z"/>
  <path class="st9" d="M617.1,624c-17.3,5.2-34.8,10-52.5,14.3l-7.2-6.2c8-4.6,26.3-17.6,30.1-40.7,7.1,2.9,12.7,6.2,16.5,8.7,5.7,7,10.1,15.1,13,24h.1Z"/>
  <path class="st8" d="M604,600.1c-3.9-2.6-9.5-5.8-16.5-8.7-13.4-5.6-31.9-9.8-52.7-5.2l-3.2-14.4c3.9-.6,7.8-.9,11.7-.9,17.3,0,33.5,5.7,46.6,15.6,5.2,3.9,9.9,8.5,14.1,13.6h0Z"/>
  <path class="st8" d="M621.1,648c-4.1,1.2-8.2,2.5-12.3,3.6-15.6,4.4-31.8,8.7-48.5,12.6l6.7-15.7c17.8-4.3,35.5-9.2,52.8-14.4.3,1.4.5,2.9.7,4.3.4,3.1.7,6.3.7,9.5h-.1Z"/>
  <path class="st9" d="M555.1,725.5c-3.9.6-7.8.9-11.7.9-26,0-49.3-12.8-63.4-32.8,14.7,9.1,44.6,24.6,72.6,20.1l2.6,11.7h0Z"/>
  <path class="st9" d="M621.1,648.6c0,34.4-23.2,65-55.9,74.6l-2.6-12c33.8-11.3,43.5-44.6,46.2-59.7,4.2-1.1,8.2-2.4,12.3-3.6v.7h0Z"/>
  <path class="st9" d="M524,638.6l-4.3,9.6c-17.9,3.6-35.7,6.6-53.6,9.2-.4-2.9-.5-5.9-.5-8.8v-.2c10.2-1.1,32.7-4,58.3-9.7h0Z"/>
  <polygon class="st8" points="572 657.4 558.2 691.4 554.9 676.7 566.9 648.5 572 657.4"/>
  <polygon class="st8" points="543.4 580.7 542 618.8 531.6 571.8 543.4 580.7"/>
  <circle cx="148.9" cy="245.3" r="33.9"/>
  <path class="st0" d="M175.5,237.7v2.7h0c-1.4,13.5-12.8,24-26.7,24s-25.2-10.5-26.7-24h0c0-.9-.2-1.9-.2-2.7v-1.9c.9-13.9,12.6-24.9,26.7-24.9s25.7,11,26.7,24.9v1.9h.3-.1Z"/>
  <path class="st7" d="M175.5,237.7v2.7h0c-1.4,13.5-12.8,24-26.7,24s-25.2-10.5-26.7-24h0c0-.9-.2-1.9-.2-2.7v-1.9c5.1-8.8,15.1-14.7,26.7-14.7s21.6,6,26.7,14.7v1.9h.3-.1Z"/>
  <path class="st1" d="M629.6,648.6c0,41.2-28.9,75.7-67.6,84.2-6,1.3-12.3,2.1-18.6,2.1-42.4,0-77.7-30.7-84.9-71.1-.9-4.9-1.3-10-1.3-15.1,0-41.2,28.9-75.7,67.6-84.2,6-1.3,12.3-2.1,18.6-2.1,40,0,73.6,27.2,83.4,64.1,1.9,7.1,2.8,14.5,2.8,22.1h0Z"/>
  <path class="st1" d="M546.1,81c-.8.2-1.6.3-2.4.5-10.4,2.1-20.8,4.3-31.2,6.6-29.7,6.6-59.3,13.8-88.7,21.7-13.2,3.6-26.5,7.3-39.6,11.2-35.1,10.2-69.9,21.5-104.3,33.6h0l-8.2-37.2c16.2-5.7,32.3-11.1,48.7-16.4,18.4-6,37-11.6,55.7-17,42.2-12.3,85-23.2,128.3-32.8,11.2-2.5,22.3-4.8,33.6-7.1,9.5-1.9,18.9-3.8,28.5-5.6l8.2,37h0s-19.1,3.5-28.6,5.5Z"/>
  <path class="st1" d="M271.9,117.3c-30.4,10.6-60.5,21.9-90.2,33.9-33.5,13.5-66.6,27.9-99.1,43.1l-8.3,45.9-15,82.7,34.9,9.6c-.5,1.3-.9,2.6-1.4,4-16,44.4-28.7,90-38.2,136.2-13.5,65.9-20.3,133.7-20.3,201.6s1.2,57.7,3.7,86.2c3.3,38.9,8.9,77.4,16.6,115.3.2.9.4,1.8.6,2.7h0l61.2,53.6c1.2,1.1,3.1,0,2.8-1.6h0c-12.3-60-19-121.7-20.1-183.5,0-6.1-.2-12-.2-18.1,0-67.9,6.8-135.7,20.3-201.6,13.1-64.2,32.7-127.2,58.2-187.6,7.7-18.2,15.9-36,24.7-53.7,12.8-25.9,26.8-51.1,41.7-75.8,8.3-13.6,16.8-27,25.8-40.2,3.5-5.2,7.1-10.4,10.7-15.5h0l-8.2-37.2h0v-.2h0l-.2.2Z"/>
  <path class="st1" d="M562.7,174.1c-9.9,2-19.9,4.2-29.7,6.3-29.7,6.5-59.3,13.8-88.6,21.8-13.2,3.6-26.5,7.4-39.6,11.2-50.5,14.9-100.3,31.9-149.3,50.9-17.9,6.9-35.6,14.2-53.3,21.6l-.4.2c12.8-25.9,26.8-51.1,41.8-75.8,8.3-13.6,16.8-27,25.8-40.2,3.5-5.2,10.7-15.5,10.7-15.5,34.4-12.1,69.2-23.4,104.3-33.6,13.1-3.9,26.4-7.6,39.6-11.2,29.4-7.9,59-15.2,88.7-21.7,10.4-2.3,20.8-4.5,31.2-6.6.8-.2,1.6-.3,2.4-.5l20.4,92.4h0s-2.6.4-4,.6h0Z"/>
  <path class="st1" d="M866,496.9l-159.3,35.3c-1.8.4-3.7-.3-4.8-1.8-36-48.3-93.7-79.5-158.5-79.5,0,0-29,1.6-42.8,4.6-11.7,2.6-23.1,6.2-33.9,10.8-2.7,1.1-5.9-.5-6.4-3.3l-34.8-156.9c13-4.5,26.2-8.2,39.6-11.2,25.5-5.7,51.7-8.5,78.4-8.5s8.9,0,13.2.3c12,.4,24,1.4,35.8,3,10.4,1.4,20.7,3.2,30.9,5.6,20.8,4.7,41.2,11.2,61.1,19.7,43.1,18.2,81.9,44.3,115.1,77.6,28.7,28.7,52.2,61.5,69.8,97.8,1.3,2.7-.3,6.1-3.2,6.7h0l-.2-.2Z"/>
  <path class="st5" d="M626.7,626.5c-26.2,8.1-54,15.6-83.4,22.1"/>
  <path class="st1" d="M905.6,654.6c-.3,19.8-2.2,39.3-5.7,58.5-4.7,26.2-12.3,51.7-22.8,76.5-18.2,43.1-44.3,81.9-77.6,115.1-24.3,24.2-51.4,44.7-81,61.1-11.1,6.1-22.4,11.6-34.1,16.5-20.3,8.6-41.3,15.3-62.7,20-25.5,5.7-51.7,8.5-78.4,8.5s-16.6-.3-24.9-.9c-40.2-2.6-79.1-12-116.2-27.6-43.1-18.2-81.9-44.3-115.1-77.6-14.7-14.7-28-30.4-39.8-47.1-15-21.2-27.7-44-37.9-68.1-8.6-20.3-15.3-41.3-19.9-62.7-4.7-21.6-7.5-43.5-8.2-65.9h0c-.2-4.2-.2-8.3-.2-12.5,0-48.9,9.5-96.3,28.5-141,4.3-10.2,9.1-20.1,14.2-29.8,14.8-27.7,33.1-53.2,54.7-76.4,2.6-2.7,7.3-1.5,8,2.3l16.8,75.8,42.7,193.1h0l3.3,15.1h0c.3,1.2.5,2.5.8,3.7.4,1.6.8,3.2,1.1,4.7,21.3,86.3,99.2,150.2,192,150.2s27.2-1.4,40.2-4.1c.7-.2,1.3-.3,2.1-.5h1.1c75.4-16.8,134.7-76.9,150.4-152.8.4-1.8,1.8-3.3,3.6-3.7l8.6-1.9,150.6-33.4s5.8,1.6,5.8,4.7h0v-.3h0v.5Z"/>
  <path class="st1" d="M556.6,286.6c-4.4-.2-8.8-.3-13.2-.3-26.7,0-52.8,2.8-78.4,8.5-13.3,2.9-26.6,6.7-39.6,11.2l-20.5-92.5c13.1-3.9,26.4-7.7,39.6-11.2,29.4-8,58.9-15.3,88.6-21.8l23.5,106.1Z"/>
  <path class="st5" d="M352.4,696.1c15,65.7,36.3,121.8,61.1,168.7,35.1,66.4,74.8,114.4,105,145.2"/>
  <path class="st5" d="M718.5,965.9c14.4-40.7,30.2-101.1,33.8-176,1.6-32.8.9-68.4-3.1-106.5"/>
  <path class="st5" d="M568.2,287.1c26.2,26.8,59.6,66.4,90.8,119.6,20.6,35.2,40.3,76.2,56.3,123.5"/>
  <path class="st5" d="M247.5,857.7c41.6,5.9,98.2,10.3,166.1,7.2,50.9-2.4,108.1-9,170.1-22.5.7-.2,1.3-.3,2.1-.5h1.1"/>
  <path class="st5" d="M223.7,477.8c24,1.5,50.6,2.3,79.6,1.7"/>
  <path class="st5" d="M899.9,713.2c-35.3,22.9-84.7,50.8-147.6,76.6-47.6,19.6-103,37.9-165.7,51.8h-1.1"/>
  <path class="st5" d="M500.9,456.7c59.5-13.1,112.2-31.5,158.2-49.9,39-15.6,73.1-32.1,101.9-47.9"/>
  <polyline class="st5" points="586.2 841.8 601.4 910.8 621.7 1002.4"/>
  <polyline class="st5" points="524.7 564.4 543.4 648.6 549.2 674.9 562 732.9"/>
  <path class="st5" d="M181.3,661.1c38.3,6.6,94.7,13,164.8,11.5"/>
  <path class="st5" d="M458.5,663.8c27.1-3.7,55.5-8.6,84.9-15.1"/>
  <path d="M741,345l-5.2,27.1,46.8,4.5s-22.3-19.9-41.6-31.7h0Z"/>
  <path d="M886.7,757.7l-18.1-25.2,27.2-31.8s-.8,28.1-9.2,57h0Z"/>
  <polygon points="753.2 759 771.4 781.7 749.7 824.6 730.9 798.3 753.2 759"/>
  <polygon points="673.7 433.3 676.7 399.4 640.6 377.3 638.7 414.7 673.7 433.3"/>
  <path d="M235.9,456.8l16.2,22.4-40.6,23.9s11.8-27.5,24.4-46.3h0Z"/>
  <path d="M278.2,892.5l5.8-30.5-38.1-17.3s12.6,25.1,32.3,47.8h0Z"/>
  <polygon points="399.8 837.2 393 865.6 430.6 895.3 436.6 863.5 399.8 837.2"/>
  <polygon points="586.8 844.8 563.7 848.7 592.5 869 607.8 840.2 586.8 844.8"/>
  <path d="M180.8,629.8l32,36.1-28.5,31.9s-5.9-49.8-3.6-67.9h.1Z"/>
  <polygon points="535.5 613 517.1 654.1 551.4 684.9 569.4 642.5 535.5 613"/>
</svg>