<?xml version="1.0" encoding="UTF-8"?>
<svg id="Layer_2" data-name="Layer 2" xmlns="http://www.w3.org/2000/svg" viewBox="0 0 933.83 1040.64">
  <defs>
    <style>
      .cls-1 {
        fill: #fff;
      }
    </style>
  </defs>
  <g id="Layer_4" data-name="Layer 4">
    <g>
      <path class="cls-1" d="M898.06,480.91l-189.81,42.04c-38-52.56-99.82-86.76-169.64-86.76-30.92,0-60.28,6.71-86.69,18.75l-40.69-183.77-19.06-86.03c-45,13.3-89.55,28.16-133.48,44.54-8.16,3.05-16.29,6.14-24.4,9.28-18.92,7.34-37.73,14.95-56.4,22.85-.14.06-.28.12-.42.18-9.27,18.7-17.96,37.66-26.07,56.83-26.99,63.79-47.71,130.55-61.6,198.42-14.25,69.68-21.48,141.41-21.48,213.22s7.23,143.54,21.48,213.22c.36,1.77.73,3.54,1.1,5.31l-68.81-60.3c-.21-.96-.4-1.92-.6-2.88C7.23,816.13,0,744.39,0,672.59s7.23-143.54,21.49-213.22c9.99-48.83,23.52-97.09,40.38-144.08.5-1.4,1.01-2.8,1.52-4.19l-36.89-10.18,15.93-87.49,8.83-48.51c34.45-16.08,69.4-31.28,104.82-45.58,23.81-9.62,47.83-18.82,72.06-27.61,24.74-8.97,49.69-17.51,74.84-25.6,19.5-6.27,39.12-12.28,58.85-18.01,44.65-12.97,89.88-24.54,135.66-34.68,11.8-2.6,23.63-5.11,35.49-7.53,10-2.04,20.03-4.01,30.08-5.91l8.65,39.08c-10.05,1.89-20.08,3.85-30.08,5.89l21.62,97.65c-1.36.28-2.72.55-4.08.83-10.48,2.14-20.95,4.37-31.4,6.7l22.2,100.21c12.76.35,25.36,1.31,37.78,2.86,11.01,1.36,21.88,3.18,32.59,5.44,123.8,26.02,226.28,110.01,277.72,222.25Z"/>
      <path class="cls-1" d="M933.83,645.42c0,218.27-176.95,395.22-395.22,395.22s-395.23-176.95-395.23-395.22c0-26.83,2.67-53.04,7.78-78.37,15.88-78.99,55.32-149.46,110.67-203.76l71.64,323.49.05.24c19.29,95.63,103.78,167.62,205.09,167.62s187.09-73.11,205.52-169.84l113.67-25.17,76.01-16.84c.02.88.02,1.75.02,2.63Z"/>
      <path class="cls-1" d="M629.83,645.42c0,29.67-14.17,56.04-36.11,72.69-15.3,11.63-34.4,18.53-55.11,18.53-50.38,0-91.23-40.84-91.23-91.22,0-27.53,12.19-52.21,31.47-68.92h0c16.01-13.9,36.9-22.31,59.76-22.31,6.62,0,13.07.7,19.29,2.05h.01c41.11,8.85,71.92,45.41,71.92,89.18Z"/>
    </g>
  </g>
</svg>